<?xml version="1.0" standalone="no"?>
<!DOCTYPE svg PUBLIC "-//W3C//DTD SVG 20010904//EN"
 "http://www.w3.org/TR/2001/REC-SVG-20010904/DTD/svg10.dtd">
<svg version="1.0" xmlns="http://www.w3.org/2000/svg"
 width="1280.000000pt" height="1280.000000pt" viewBox="0 0 1280.000000 1280.000000"
 preserveAspectRatio="xMidYMid meet">
<metadata>
Created by potrace 1.16, written by Peter Selinger 2001-2019
</metadata>
<g transform="translate(0.000000,1280.000000) scale(0.100000,-0.100000)"
fill="#000000" stroke="none">
<path d="M12730 11728 c0 -1010 -1 -1077 -19 -1148 -10 -42 -27 -91 -37 -109
-11 -18 -23 -42 -29 -52 -5 -11 -15 -19 -21 -19 -7 0 -26 -13 -44 -30 -18 -16
-40 -30 -50 -30 -10 0 -25 -6 -32 -13 -7 -8 -31 -20 -53 -27 -22 -7 -42 -16
-45 -19 -8 -10 -44 -31 -62 -37 -10 -4 -18 -10 -18 -15 0 -5 -18 -9 -40 -9
-22 0 -40 5 -40 10 0 6 -24 10 -54 10 -34 0 -58 5 -65 14 -7 8 -25 18 -41 21
-15 3 -36 15 -46 26 -9 10 -24 19 -32 19 -9 0 -23 7 -32 15 -47 43 -335 60
-590 35 -63 -6 -151 -13 -195 -16 -73 -5 -120 -16 -270 -61 -27 -8 -69 -21
-92 -27 -23 -6 -45 -15 -49 -19 -4 -4 -19 -7 -34 -7 -15 0 -40 -7 -57 -15 -54
-27 -218 -46 -333 -39 -58 4 -108 11 -111 16 -3 4 -28 10 -55 12 -27 2 -62 11
-79 20 -25 13 -32 14 -40 2 -11 -14 -26 -4 -38 24 -6 15 -9 -343 -11 -1087
l-1 -422 -27 -28 c-18 -19 -28 -40 -28 -60 0 -27 3 -30 25 -25 19 3 25 0 25
-12 0 -18 -9 -18 -173 0 -27 3 -47 1 -45 -3 27 -56 32 -63 50 -57 10 3 18 1
18 -5 0 -5 3 -16 6 -24 8 -22 -25 -26 -63 -8 -18 9 -35 24 -39 34 -5 15 -14
18 -51 17 -5 0 -8 -10 -8 -23 0 -19 -6 -22 -46 -25 -46 -2 -47 -1 -52 30 -3
22 0 36 9 41 8 4 14 13 14 20 0 17 -54 61 -58 47 -3 -8 -8 -7 -18 1 -14 12
-113 14 -146 3 -10 -3 -18 0 -18 6 0 14 -29 11 -225 -18 -71 -10 -141 -24
-155 -29 -14 -6 -55 -14 -90 -17 -35 -4 -67 -11 -70 -16 -3 -6 -19 -11 -34
-12 -15 -1 -32 -8 -38 -15 -6 -7 -18 -13 -27 -13 -9 0 -22 -5 -28 -11 -16 -16
-37 -1 -23 16 9 10 6 15 -12 21 -13 3 -26 11 -30 17 -4 7 -44 10 -101 9 -73
-1 -97 1 -107 13 -17 21 -30 19 -30 -5 0 -26 -22 -26 -38 0 -11 17 -15 18 -35
8 -12 -7 -25 -17 -29 -23 -5 -6 -8 -5 -8 2 0 22 -77 8 -114 -20 -18 -14 -37
-23 -41 -19 -5 4 -5 2 -2 -4 9 -16 -12 -32 -48 -36 -22 -2 -31 -9 -33 -26 -3
-17 -8 -21 -23 -17 -14 5 -17 2 -13 -8 6 -17 -105 -97 -135 -97 -10 0 -24 -7
-31 -15 -7 -9 -19 -14 -26 -11 -8 3 -11 0 -7 -10 3 -7 9 -14 15 -14 5 0 2 -7
-6 -16 -10 -9 -24 -13 -36 -9 -27 9 -50 -11 -50 -41 0 -19 -5 -24 -25 -24 -16
0 -25 6 -25 15 0 8 -7 15 -15 15 -18 0 -20 -26 -2 -33 9 -4 9 -6 0 -6 -7 -1
-13 -12 -13 -26 0 -33 -25 -42 -51 -19 -20 18 -21 18 -39 -4 -12 -14 -29 -22
-50 -22 -24 0 -31 -4 -26 -15 7 -20 -31 -44 -75 -48 -20 -2 -33 -8 -31 -16 1
-6 -3 -11 -10 -10 -30 3 -60 -14 -55 -32 4 -14 0 -19 -15 -19 -22 0 -48 -22
-48 -41 0 -9 -3 -9 -15 1 -13 11 -13 14 1 27 8 9 12 18 9 22 -4 3 -20 -11 -37
-31 -16 -21 -34 -38 -40 -38 -5 0 -6 5 -3 10 10 17 -1 12 -56 -25 -30 -19 -58
-35 -63 -35 -5 0 -18 -7 -28 -17 -11 -9 -18 -11 -18 -5 0 7 9 17 20 24 36 23
21 31 -42 25 -46 -5 -93 0 -173 16 -100 21 -111 25 -123 50 -10 21 -17 26 -27
17 -13 -11 -45 -4 -45 10 0 5 13 11 30 15 16 4 32 11 35 16 4 5 25 9 48 9 31
0 45 5 54 19 7 11 26 22 42 26 17 4 34 11 37 17 4 6 2 8 -4 4 -6 -3 -13 -2
-17 4 -3 5 0 10 7 10 8 0 5 5 -5 11 -14 8 -22 8 -30 0 -38 -38 -35 16 3 57 17
18 30 37 30 43 0 15 -30 10 -36 -6 -8 -21 -24 -19 -25 3 0 13 -2 14 -6 2 -7
-19 -23 -30 -43 -30 -11 1 -10 5 5 16 11 8 19 19 18 24 -1 4 13 11 32 14 39 8
45 20 16 36 -25 13 -32 13 -29 -2 2 -6 -15 -15 -36 -20 -22 -5 -47 -15 -55
-22 -9 -8 -26 -17 -38 -20 -13 -4 -22 -10 -21 -14 3 -16 -15 -42 -31 -43 -12
0 -12 -2 4 -9 22 -10 17 -12 -37 -14 -21 0 -38 2 -38 7 0 4 11 7 25 7 14 0 25
5 25 10 0 18 -28 11 -106 -25 -49 -23 -73 -39 -68 -47 5 -8 0 -9 -16 -5 -16 4
-46 -4 -87 -23 -61 -29 -76 -44 -50 -53 6 -2 9 -8 5 -12 -3 -4 -14 -2 -24 3
-17 10 -23 7 -141 -57 -10 -5 -30 -12 -45 -16 -36 -7 -36 -20 0 -33 27 -10 53
-15 162 -33 30 -5 64 -11 75 -14 11 -2 36 -8 55 -11 19 -4 40 -10 46 -15 6 -5
31 -5 58 0 44 8 52 6 131 -35 46 -24 93 -44 104 -44 12 0 21 -4 21 -9 0 -12
85 -26 102 -17 18 9 48 28 81 50 15 10 30 16 34 13 3 -4 -5 -11 -18 -16 -30
-13 -69 -46 -69 -59 0 -10 176 -82 202 -82 9 0 36 -15 61 -34 24 -18 62 -42
83 -52 21 -9 48 -25 59 -35 26 -23 158 -89 177 -89 15 0 80 -32 198 -98 30
-17 80 -38 110 -46 30 -9 69 -25 85 -36 17 -11 40 -20 52 -20 12 0 24 -4 28
-9 3 -5 20 -13 37 -17 18 -3 43 -13 55 -21 14 -10 30 -12 45 -7 13 4 30 9 38
10 32 3 80 26 74 36 -4 5 -24 8 -45 6 -55 -5 -44 15 14 26 41 8 49 7 61 -9 11
-15 17 -17 27 -8 18 14 95 1 91 -15 -3 -17 17 -15 36 4 21 21 122 12 160 -14
15 -10 38 -23 52 -30 14 -7 45 -26 70 -42 25 -16 52 -33 60 -36 8 -4 22 -12
30 -19 8 -6 35 -18 58 -25 29 -9 47 -22 53 -37 5 -13 16 -26 24 -29 8 -4 15
-12 15 -18 0 -18 -59 -8 -92 15 -14 11 -31 19 -36 19 -14 0 -25 -37 -16 -51 4
-7 3 -9 -4 -5 -6 3 -17 20 -26 36 -13 27 -13 30 0 30 9 0 12 5 9 10 -4 6 -10
8 -15 5 -5 -3 -17 6 -28 20 -25 31 -44 32 -40 3 2 -14 13 -25 28 -29 l25 -7
-27 -1 c-15 -1 -31 5 -35 13 -4 8 -21 17 -38 20 -55 10 -75 18 -75 32 0 8 -7
14 -16 14 -8 0 -40 14 -71 31 -38 21 -69 31 -96 31 -22 -1 -46 6 -54 14 -18
17 -43 19 -39 2 1 -7 1 -10 -1 -5 -7 11 -33 8 -33 -4 0 -6 -9 -8 -20 -4 -11 4
-20 2 -20 -4 0 -6 -12 -11 -26 -11 -41 0 -14 -24 49 -45 28 -9 72 -28 96 -41
45 -23 46 -24 53 -4 11 29 27 25 39 -9 12 -33 92 -91 127 -91 11 0 24 -4 27
-10 3 -5 15 -10 26 -10 10 0 19 -4 19 -8 0 -4 17 -14 38 -21 20 -8 44 -20 52
-27 9 -8 28 -11 44 -8 21 4 29 0 33 -15 4 -16 59 -38 84 -33 3 1 12 -9 19 -22
8 -17 24 -26 52 -30 22 -4 50 -14 64 -22 13 -9 24 -13 24 -9 0 4 11 0 25 -9
13 -9 31 -16 40 -16 8 0 15 -4 15 -9 0 -5 22 -11 49 -15 27 -3 54 -13 61 -21
6 -8 32 -24 56 -35 24 -12 44 -26 44 -31 0 -12 27 -12 32 1 5 15 72 -7 93 -31
24 -26 94 -61 170 -84 33 -10 72 -27 87 -37 14 -10 37 -18 51 -18 14 0 32 -6
39 -13 7 -7 34 -13 60 -13 26 -1 58 -8 71 -17 13 -9 47 -18 74 -20 27 -2 55
-7 62 -11 7 -5 15 -5 18 -2 4 3 6 223 5 489 -2 483 5 723 19 642 3 -22 7 -30
8 -18 2 36 21 37 22 1 0 -18 3 -28 5 -22 6 14 109 -7 127 -25 6 -6 18 -11 28
-11 9 0 50 -22 92 -50 42 -27 82 -50 90 -50 8 0 26 -9 39 -20 14 -10 28 -16
32 -13 3 3 6 -1 6 -10 0 -10 8 -17 19 -17 10 0 21 -7 25 -15 3 -8 14 -15 24
-15 10 0 23 -5 28 -10 11 -11 72 -45 141 -80 23 -11 45 -25 48 -30 3 -6 15
-10 27 -10 11 0 31 -9 45 -20 14 -11 33 -20 43 -20 10 0 29 -9 43 -20 14 -11
30 -20 36 -20 7 0 21 -9 33 -20 12 -11 29 -20 39 -20 9 0 28 -9 42 -20 14 -11
33 -20 42 -20 9 0 28 -9 42 -20 14 -11 34 -20 45 -20 24 0 78 -28 78 -40 0 -5
12 -13 28 -16 33 -9 100 -43 108 -55 3 -5 13 -9 23 -9 10 0 24 -6 30 -14 6 -7
25 -16 41 -19 16 -4 37 -14 47 -24 10 -10 41 -29 68 -43 28 -14 56 -33 63 -43
9 -11 21 -16 33 -12 10 4 19 2 19 -3 0 -5 28 -20 63 -32 34 -13 69 -29 78 -37
8 -7 25 -13 36 -13 11 0 26 -7 33 -15 7 -8 30 -20 52 -25 21 -6 42 -18 45 -26
3 -7 11 -14 19 -14 8 0 14 -4 14 -8 0 -5 21 -14 48 -21 26 -6 74 -19 107 -27
33 -8 78 -18 100 -20 22 -3 49 -9 60 -14 11 -5 47 -16 80 -26 33 -9 66 -24 73
-33 7 -9 16 -16 19 -16 13 0 63 -50 63 -62 0 -7 5 -13 11 -13 9 0 10 -28 6
-99 -4 -81 -9 -104 -25 -121 -19 -20 -38 -80 -34 -106 1 -6 -5 -17 -13 -24 -8
-7 -15 -18 -15 -24 0 -19 59 -136 68 -136 26 0 48 -273 45 -550 -1 -80 -4
-287 -6 -460 -2 -173 -7 -329 -11 -346 -4 -17 -2 -78 3 -135 19 -193 14 -380
-16 -642 -13 -114 -13 -154 -4 -231 12 -93 13 -219 6 -641 -4 -250 -5 -261
-24 -295 -37 -64 -55 -232 -38 -341 18 -115 16 -231 -3 -250 -31 -31 -48 -29
-117 17 -104 67 -143 97 -143 107 0 15 -33 36 -57 37 -16 0 -23 6 -23 19 0 15
-10 19 -52 23 -29 3 -65 2 -80 -3 -15 -4 -28 -4 -28 1 0 13 -63 -8 -76 -25 -6
-8 -25 -15 -42 -15 -17 0 -34 -4 -37 -10 -11 -18 -75 -11 -97 10 -12 11 -17
20 -11 20 6 0 -2 14 -18 31 -16 17 -32 28 -36 26 -5 -3 -8 16 -9 41 -1 26 -5
122 -9 213 -6 122 -5 168 4 173 6 4 11 18 11 32 0 13 5 24 10 24 14 0 13 56
-2 97 -9 23 -24 39 -53 53 -56 27 -104 26 -145 -5 -19 -14 -40 -25 -48 -25 -8
0 -29 -9 -46 -19 -17 -10 -50 -22 -73 -26 -24 -4 -43 -11 -43 -16 0 -19 -21
-8 -30 16 -6 16 -17 25 -31 25 -11 0 -34 14 -51 30 -16 17 -34 30 -39 30 -5 0
-9 7 -9 15 0 15 -67 85 -81 85 -4 0 -9 9 -12 20 -3 12 -14 20 -26 20 -13 0
-26 10 -33 25 -6 14 -16 25 -22 26 -6 0 -47 4 -91 8 -80 9 -121 1 -138 -26 -4
-7 -17 -13 -28 -13 -11 0 -30 -5 -41 -11 -14 -8 -23 -8 -31 0 -6 6 -19 11 -29
11 -10 0 -38 20 -62 44 -24 24 -62 52 -85 62 -22 11 -41 24 -41 29 -1 19 -88
65 -140 75 -28 5 -57 13 -63 17 -16 11 -117 11 -117 1 0 -4 -20 -8 -45 -8 -28
0 -45 4 -45 12 0 6 -6 4 -13 -6 -13 -17 -14 -17 -30 -1 -9 9 -17 23 -17 31 0
8 -4 13 -9 10 -11 -7 -23 37 -16 56 3 8 -4 23 -15 33 -18 16 -23 17 -30 5 -5
-8 -6 -33 -3 -55 13 -75 10 -88 -19 -96 -15 -4 -29 -3 -32 2 -2 5 -3 4 -2 -3
5 -20 -13 -48 -30 -48 -8 0 -19 12 -25 28 -8 19 -13 23 -17 12 -3 -8 -12 -21
-19 -29 -12 -12 -18 -11 -41 6 -15 11 -28 30 -30 42 -3 17 2 21 23 21 19 0 26
5 23 16 -2 8 -7 14 -12 14 -5 -1 -13 4 -17 12 -7 10 -9 9 -9 -4 0 -10 -4 -18
-10 -18 -5 0 -10 11 -10 24 0 13 -7 26 -15 30 -8 3 -12 12 -9 21 9 22 -18 19
-39 -5 -21 -25 -22 -50 -2 -76 12 -16 14 -17 15 -2 0 9 -5 18 -11 20 -7 2 -10
10 -7 18 6 19 42 -34 44 -64 1 -12 7 -34 13 -51 22 -56 22 -57 6 -51 -9 3 -15
0 -15 -9 0 -11 -6 -12 -30 -4 -31 11 -41 43 -17 52 8 4 9 8 1 14 -6 4 -15 22
-19 38 -5 19 -10 24 -12 14 -4 -15 -8 -15 -41 2 -20 11 -43 19 -52 19 -22 1
-46 22 -55 49 -5 18 -9 21 -16 10 -7 -11 -9 -10 -9 4 0 10 -4 15 -10 12 -16
-10 -12 -24 14 -46 13 -12 27 -32 31 -46 4 -18 10 -23 25 -18 10 3 27 1 37 -5
10 -5 30 -14 46 -20 37 -13 39 -55 2 -48 -25 5 -34 -5 -15 -17 12 -7 4 -25
-11 -25 -5 0 -9 8 -9 18 -1 21 -34 62 -50 62 -8 0 -10 -9 -6 -24 3 -14 2 -27
-2 -30 -11 -7 -42 30 -42 50 0 8 -4 12 -10 9 -5 -3 -7 0 -4 9 3 8 2 21 -2 28
-6 9 -10 5 -14 -12 -3 -14 -14 -26 -24 -28 -11 -3 -16 0 -12 7 12 18 0 13 -34
-17 -22 -20 -31 -35 -27 -48 4 -17 5 -17 12 3 4 13 11 23 16 23 11 0 11 -3 -1
-35 -9 -22 -12 -24 -30 -13 -20 13 -28 48 -11 48 12 0 20 59 9 66 -4 3 -8 0
-8 -6 0 -7 -9 -23 -19 -36 -14 -18 -20 -21 -24 -10 -3 8 0 17 8 20 11 4 11 10
2 30 -9 18 -15 22 -24 14 -21 -17 -32 0 -23 33 7 23 6 31 -7 36 -10 4 -13 14
-9 34 9 44 -8 34 -21 -12 -9 -36 -8 -42 8 -52 23 -14 25 -27 4 -27 -8 0 -15
-7 -15 -15 0 -8 -6 -15 -12 -15 -10 0 -9 -3 1 -9 13 -9 7 -31 -9 -31 -4 0 -17
15 -29 33 l-21 32 0 -37 c0 -47 31 -69 59 -44 27 24 33 20 30 -23 -2 -25 4
-48 16 -67 11 -16 23 -35 26 -43 3 -8 13 -15 22 -17 35 -5 123 -37 136 -50 13
-11 12 -14 -2 -20 -10 -3 -23 -2 -30 4 -6 5 -31 15 -54 21 -24 7 -43 17 -43
23 0 5 -8 8 -19 5 -20 -5 -51 9 -51 23 0 6 8 10 18 10 14 0 12 4 -8 20 -14 11
-35 23 -47 26 -13 3 -23 10 -23 15 0 5 -18 18 -39 29 -44 22 -63 19 -99 -17
-13 -13 -28 -23 -34 -23 -5 0 -1 8 10 18 38 32 37 57 -4 81 -20 12 -57 27 -83
34 -25 6 -49 17 -53 23 -4 7 -26 21 -47 32 -61 32 -84 46 -99 59 -7 7 -21 17
-30 22 -9 5 -14 13 -10 17 4 4 19 -1 33 -10 14 -9 25 -14 25 -10 0 3 12 -1 26
-11 39 -25 127 -46 136 -32 11 18 9 29 -3 21 -7 -4 -10 -1 -7 7 3 8 12 13 19
11 8 -2 21 -4 30 -5 9 -1 15 -7 12 -13 -3 -7 -11 -10 -19 -7 -10 4 -14 -3 -14
-21 0 -16 7 -29 18 -32 9 -4 46 -17 80 -31 87 -33 96 -28 88 48 -9 73 -13 86
-32 93 -12 4 -14 1 -9 -14 5 -14 2 -20 -9 -20 -19 0 -21 -11 -5 -27 19 -19 -8
-25 -34 -8 -13 8 -33 13 -43 10 -10 -3 -7 1 9 8 28 13 28 31 -1 20 -10 -4 -13
-2 -8 5 14 24 -4 50 -39 56 -19 4 -35 11 -35 17 0 6 5 7 10 4 20 -12 10 26
-13 49 -30 30 -87 119 -88 137 0 8 -5 4 -11 -9 -9 -19 -5 -34 25 -95 21 -39
37 -81 37 -92 0 -17 -3 -16 -25 10 -13 17 -25 37 -25 45 -1 18 -29 58 -31 44
-1 -5 -3 -20 -4 -34 -2 -14 -5 -35 -8 -46 -4 -15 4 -31 25 -53 22 -23 26 -31
14 -31 -9 0 -16 3 -16 8 0 4 -10 12 -22 17 -15 7 -23 19 -23 35 0 29 -17 39
-25 15 -4 -13 -10 -10 -28 14 -22 30 -42 35 -70 17 -11 -7 -11 -4 -1 13 12 17
10 23 -9 44 -12 13 -22 33 -22 45 0 23 -22 42 -28 24 -6 -18 -16 -15 -45 12
-30 28 -20 44 15 25 20 -11 21 -10 11 3 -7 8 -32 21 -55 28 -24 8 -48 18 -55
23 -7 5 -17 6 -23 2 -5 -3 -10 -1 -10 5 0 6 7 13 16 17 9 3 14 13 11 24 -3 10
1 20 9 23 16 6 19 36 4 36 -5 0 -10 -7 -10 -15 0 -21 -18 -19 -25 4 -7 23 -45
36 -45 15 0 -8 6 -14 13 -14 19 0 14 -37 -6 -57 -16 -16 -18 -16 -32 2 -12 17
-16 18 -24 6 -15 -23 -41 5 -40 43 l1 31 7 -29 c8 -36 26 -44 41 -17 9 17 8
20 -6 14 -27 -10 -10 77 20 103 l24 21 -20 32 c-11 17 -22 31 -25 31 -7 0 9
-44 19 -51 19 -12 -19 -30 -43 -20 -21 8 -22 10 -6 16 21 9 23 53 1 62 -9 3
-33 -4 -53 -15 -21 -12 -41 -18 -45 -14 -4 4 -7 2 -6 -3 6 -28 -2 -45 -20 -45
-25 0 -25 -9 -2 -26 15 -12 14 -13 -16 -14 -30 0 -33 3 -32 27 4 50 1 60 -11
40 -6 -9 -9 -25 -8 -35 4 -23 -28 -82 -44 -82 -7 0 -20 -16 -29 -35 l-16 -35
29 0 c15 0 31 5 34 10 7 11 76 13 124 4 25 -5 31 -12 31 -31 0 -18 4 -24 15
-19 9 3 15 0 15 -9 0 -8 7 -15 15 -15 9 0 12 -6 9 -15 -4 -10 -13 -13 -25 -10
-26 9 -24 2 16 -66 19 -33 35 -64 35 -68 0 -5 6 -11 14 -14 8 -3 19 -23 26
-44 7 -21 19 -49 27 -61 8 -13 13 -26 11 -28 -4 -3 -126 181 -163 246 -9 14
-15 16 -29 8 -22 -13 -15 3 18 41 l21 24 -22 -5 c-12 -3 -24 -1 -26 6 -3 8
-16 8 -51 -2 -26 -7 -52 -9 -58 -6 -5 3 -36 1 -69 -6 -42 -9 -59 -17 -60 -29
0 -14 -1 -14 -11 0 -9 14 -15 14 -57 -1 -25 -8 -60 -25 -76 -36 -56 -39 -58
-39 -51 -7 5 21 1 34 -14 51 -12 12 -26 19 -32 16 -7 -5 -8 -2 -4 5 5 7 1 20
-9 31 -11 13 -13 20 -5 25 16 10 58 -32 65 -65 3 -16 12 -30 18 -33 7 -2 40 9
75 25 48 23 62 35 62 52 0 17 -6 22 -27 21 -19 0 -28 5 -28 16 0 9 -6 23 -14
32 -11 14 -9 21 13 50 30 39 29 44 -24 172 -7 17 -18 54 -26 82 -7 29 -22 61
-33 72 -10 10 -24 42 -31 71 -11 48 -38 89 -58 90 -10 1 -52 37 -52 46 0 4 -7
16 -17 26 -9 10 -11 18 -5 18 6 0 14 -4 17 -10 10 -16 65 -12 65 4 0 22 19 30
36 15 18 -15 21 -12 26 26 3 27 0 30 -26 33 -16 2 -38 15 -48 28 -27 34 -44
30 -19 -5 l21 -29 -43 -20 c-23 -11 -46 -18 -50 -15 -10 6 1 73 14 89 9 11
-19 55 -51 81 -40 32 -84 2 -113 -77 -35 -93 -59 -97 -32 -5 9 31 13 64 10 74
-3 12 0 21 10 25 8 3 15 12 15 20 0 9 17 20 43 27 23 6 48 16 55 21 14 12 16
32 2 23 -27 -17 -5 33 35 77 46 51 54 75 33 96 -8 8 -8 12 -1 12 17 0 77 125
113 234 l33 100 -12 100 c-7 56 -12 106 -11 111 0 6 3 30 5 55 5 38 -1 29 -36
-60 -31 -80 -41 -120 -43 -169 -1 -41 -6 -66 -14 -69 -7 -2 -10 -7 -7 -12 3
-5 0 -14 -7 -22 -19 -19 -54 -89 -62 -121 -4 -18 -22 -37 -54 -57 -54 -34 -86
-39 -78 -12 3 9 8 31 12 47 11 46 52 124 104 195 88 121 168 276 152 292 -14
14 -47 -12 -101 -79 -23 -30 -45 -52 -48 -50 -5 6 22 53 51 85 11 12 14 22 8
22 -19 0 -14 56 13 144 28 91 35 140 21 144 -6 2 -16 -16 -23 -40 -7 -24 -17
-52 -22 -63 -6 -11 -29 -94 -51 -184 -23 -90 -48 -180 -57 -200 -8 -20 -23
-61 -33 -91 -10 -30 -26 -75 -35 -100 -10 -25 -26 -76 -36 -115 -11 -38 -24
-79 -29 -90 -5 -11 -28 -72 -49 -135 -44 -127 -70 -192 -71 -173 0 23 52 182
101 305 11 26 19 56 19 68 0 12 6 36 14 53 29 67 58 170 53 193 -2 14 1 25 9
28 8 3 14 11 14 18 0 6 9 30 20 53 15 31 21 67 23 133 2 50 6 94 10 98 7 8 10
-15 7 -56 -4 -50 18 -4 40 83 17 68 20 100 14 145 -4 31 -7 61 -6 65 4 13 -19
48 -27 42 -9 -5 -34 -180 -33 -229 1 -22 -2 -26 -11 -17 -6 6 -17 66 -23 133
-9 93 -15 123 -28 130 -41 23 -69 55 -60 69 4 8 9 30 9 50 1 47 -22 41 -31 -7
-6 -33 -8 -34 -24 -19 -16 15 -18 14 -23 -5 -3 -11 -1 -23 4 -26 15 -9 10 -44
-6 -50 -21 -8 -19 -64 3 -80 22 -17 32 -17 32 -1 0 7 12 18 28 24 24 10 25 11
5 12 -27 1 -38 17 -17 25 18 7 54 -10 54 -26 0 -6 -14 -63 -31 -127 -18 -64
-35 -138 -39 -166 -4 -27 -12 -62 -18 -76 -6 -16 -10 -83 -9 -159 1 -109 -2
-134 -14 -144 -16 -11 -54 -244 -65 -391 -2 -38 -9 -74 -14 -79 -6 -6 -10 -18
-10 -28 0 -23 -19 -23 -27 -1 -4 9 -1 84 6 165 8 101 8 154 2 166 -9 15 -10
15 -11 -3 0 -11 -7 -33 -16 -50 -52 -99 -55 -149 -23 -363 20 -130 20 -167 3
-149 -7 7 -29 82 -49 167 -13 58 -32 207 -45 350 -5 47 -13 125 -19 175 -7 49
-13 178 -14 285 l-3 195 49 44 c42 39 46 47 33 57 -23 16 -20 22 12 26 27 4
26 4 -13 23 -22 11 -42 20 -44 22 -1 1 0 6 3 12 4 7 21 3 45 -10 51 -26 83
-14 112 43 12 24 30 53 40 66 10 13 23 48 30 78 11 50 10 62 -10 126 -13 38
-20 80 -17 92 3 13 -5 65 -18 117 -13 52 -27 111 -30 131 -4 21 -11 40 -16 43
-5 3 -25 -26 -45 -64 -20 -38 -55 -91 -79 -119 -27 -32 -49 -70 -60 -108 -53
-180 -98 -265 -161 -304 -42 -26 -47 -25 -84 7 -30 26 -42 63 -21 63 6 0 10 7
10 15 0 8 -4 15 -10 15 -15 0 -12 21 5 34 8 6 17 31 19 56 4 43 5 45 44 55 52
13 73 32 46 41 -57 18 -72 28 -82 49 -8 16 -21 25 -43 27 -18 2 -34 8 -36 13
-4 14 45 35 82 35 17 0 40 6 50 14 18 13 18 14 -3 25 -11 6 -32 11 -46 11 -14
0 -26 3 -26 8 0 9 -50 32 -69 31 -11 0 -12 -2 -3 -6 27 -11 9 -19 -41 -19 -44
1 -53 4 -50 17 5 17 76 29 168 29 57 0 106 10 99 21 -3 5 -19 9 -36 9 -21 0
-31 6 -35 19 -8 31 -52 35 -107 11 -26 -12 -50 -19 -53 -16 -8 8 17 36 33 36
7 0 29 8 49 17 32 15 39 26 38 61 -1 6 10 12 23 12 27 0 28 3 14 31 -9 16 -19
18 -75 15 -62 -4 -65 -3 -65 18 0 12 5 27 11 33 8 8 8 13 0 17 -6 4 -11 2 -11
-3 0 -6 -7 -11 -15 -11 -8 0 -15 -7 -15 -15 0 -8 -4 -15 -10 -15 -5 0 -10 -11
-10 -25 0 -20 5 -25 24 -25 13 0 29 -6 36 -14 6 -8 24 -16 38 -18 25 -3 24 -4
-19 -25 -25 -13 -51 -23 -57 -23 -7 0 -28 -10 -47 -22 -29 -20 -35 -29 -35
-60 0 -21 -4 -38 -10 -38 -5 0 -10 -9 -10 -20 0 -14 7 -20 24 -20 16 0 26 -7
30 -22 9 -36 7 -48 -8 -48 -22 0 -61 47 -61 72 0 16 -7 24 -22 26 -12 2 -35
21 -52 43 -24 33 -30 37 -34 22 -3 -11 -5 -8 -6 11 0 16 -6 57 -13 92 l-11 64
-38 0 c-28 0 -40 6 -53 25 -19 29 -60 49 -91 46 -32 -4 -107 -30 -152 -53 -55
-29 -96 -111 -97 -194 -1 -44 -5 -59 -22 -73 -11 -9 -24 -28 -27 -43 -4 -16
-16 -28 -32 -32 -22 -6 -23 -9 -13 -26 7 -10 10 -21 8 -23 -3 -2 -31 -20 -62
-40 -51 -32 -57 -39 -49 -59 7 -19 15 -22 46 -20 28 3 36 1 31 -10 -3 -7 -9
-21 -12 -30 -4 -10 -10 -18 -14 -18 -18 0 -55 -44 -56 -68 -1 -15 -5 -35 -9
-46 -7 -16 -5 -17 15 -11 16 5 21 4 18 -6 -4 -11 -28 -13 -110 -11 -82 3 -112
0 -136 -12 -23 -12 -32 -13 -36 -3 -5 9 -8 8 -12 -2 -13 -29 -53 -61 -68 -55
-9 3 -16 2 -16 -2 0 -5 -23 -25 -50 -44 -40 -29 -55 -50 -89 -121 -23 -47 -41
-89 -41 -92 0 -4 -13 -35 -30 -69 -16 -34 -30 -65 -30 -70 0 -4 -14 -36 -31
-70 -44 -90 -84 -206 -115 -333 -15 -60 -31 -115 -35 -121 -5 -6 -6 -14 -3
-17 11 -10 -17 -94 -38 -117 -17 -18 -18 -23 -6 -37 9 -12 9 -15 1 -9 -9 5
-13 0 -13 -18 0 -14 -4 -27 -9 -31 -6 -3 -13 -25 -17 -50 -3 -24 -12 -50 -20
-56 -8 -6 -14 -19 -14 -29 0 -10 -7 -21 -16 -24 -14 -5 -15 0 -10 41 4 27 9
69 10 94 2 26 9 56 15 68 16 30 -4 27 -31 -4 -12 -14 -24 -25 -27 -25 -8 0 -6
60 2 80 17 42 4 88 -27 92 -13 2 -21 10 -21 23 0 17 7 20 43 20 23 0 46 5 50
11 4 6 19 14 34 18 31 7 42 24 52 80 6 31 5 38 -7 33 -9 -3 -19 4 -26 20 -13
28 -5 46 9 23 5 -8 12 -11 16 -7 11 11 -15 35 -46 42 -22 5 -27 10 -22 27 3
13 1 19 -5 15 -6 -4 -18 2 -28 13 -24 27 -34 25 -46 -7 -8 -22 -7 -30 6 -39
13 -10 12 -12 -11 -17 -14 -2 -34 -2 -45 0 -17 5 -17 6 -2 22 15 15 15 16 0
19 -23 5 -22 33 2 39 10 2 29 18 41 35 16 21 25 27 30 18 6 -9 13 -9 26 -2 18
10 18 11 2 17 -13 5 -18 18 -18 47 0 31 -4 41 -20 45 -11 3 -20 12 -20 19 0 8
-5 14 -11 14 -6 0 -8 9 -3 22 6 20 5 21 -10 9 -14 -12 -16 -11 -16 8 0 13 -4
19 -10 16 -6 -4 -8 -21 -5 -38 6 -35 -7 -57 -42 -75 -28 -15 -90 -15 -99 0
-10 16 27 40 53 35 19 -4 23 0 23 24 0 29 -24 45 -53 34 -8 -4 -18 -2 -21 4
-9 14 11 51 28 51 19 0 27 25 13 39 -6 6 -8 11 -5 11 4 0 14 -7 23 -17 16 -15
17 -15 14 3 -2 10 0 25 5 33 6 10 5 12 -2 7 -7 -4 -17 -4 -23 0 -6 4 2 17 22
33 l33 28 -52 2 c-56 2 -64 -9 -39 -50 10 -18 8 -23 -16 -45 -26 -22 -36 -24
-105 -22 -43 1 -87 -1 -99 -6 -38 -13 -27 13 12 30 27 11 35 20 35 39 0 37
-27 43 -56 11 -14 -14 -33 -26 -43 -26 -22 0 -36 -27 -18 -33 9 -3 9 -8 -1
-20 -8 -9 -11 -20 -8 -26 10 -15 -5 -43 -20 -37 -7 3 -14 -4 -16 -16 -2 -14
-15 -25 -35 -32 -25 -9 -30 -14 -23 -26 7 -12 12 -12 22 -2 17 17 28 15 28 -7
0 -15 -12 -22 -55 -32 -30 -7 -58 -9 -61 -6 -4 3 0 23 8 44 11 28 24 41 47 48
17 5 31 12 31 16 0 3 11 19 24 34 28 32 26 45 -7 45 l-21 0 21 15 c13 9 20 22
17 30 -4 8 -1 15 5 15 6 0 11 5 11 11 0 5 -4 7 -10 4 -22 -14 -8 16 15 31 14
9 22 21 19 26 -10 16 -97 -2 -122 -25 -25 -24 -29 -42 -7 -33 9 3 18 -1 21 -9
4 -8 15 -15 25 -15 10 0 19 -2 19 -5 0 -2 -21 -27 -47 -54 -46 -49 -48 -49
-75 -35 -24 13 -35 13 -64 2 -30 -10 -37 -10 -45 2 -9 13 -10 13 -8 0 3 -30
-13 -59 -29 -53 -10 4 -13 2 -8 -6 4 -6 1 -22 -7 -35 -8 -12 -14 -36 -13 -53
2 -26 -3 -32 -31 -42 -37 -14 -44 -31 -13 -31 18 0 25 -10 21 -33 -1 -4 8 -2
19 5 23 15 38 4 21 -16 -9 -11 -7 -15 9 -19 11 -3 22 -1 25 3 6 9 104 40 127
40 7 0 -4 -16 -26 -36 -38 -35 -40 -35 -100 -29 -60 7 -61 6 -78 -22 l-17 -29
32 -2 c58 -5 167 -42 167 -57 0 -8 -7 -15 -15 -15 -17 0 -93 -38 -101 -51 -3
-5 2 -6 10 -3 22 8 74 -17 79 -38 6 -21 47 -24 65 -6 7 7 12 10 13 8 10 -54 5
-61 -58 -93 -68 -33 -84 -30 -89 15 -1 13 -3 25 -3 28 -1 3 -7 -6 -14 -19 -14
-28 -37 -40 -37 -19 0 7 -14 21 -30 30 -29 16 -30 16 -40 -3 -6 -11 -16 -17
-21 -13 -6 3 -38 1 -71 -6 l-60 -13 5 -48 c6 -45 4 -50 -35 -90 -37 -38 -43
-41 -81 -36 -23 3 -43 10 -45 16 -2 5 -28 -2 -59 -15 -64 -29 -91 -26 -71 6 7
11 26 25 43 30 16 6 41 19 55 29 20 16 22 22 11 34 -9 12 -10 25 -2 52 16 58
0 75 -74 75 -17 0 -55 9 -85 20 -53 20 -120 20 -120 1 0 -13 -25 -20 -49 -14
-31 8 -26 30 9 37 17 3 44 15 60 28 23 17 30 30 30 57 1 43 27 77 69 92 38 13
41 32 5 23 -24 -6 -26 -5 -19 17 8 24 9 88 2 96 -2 2 -50 -2 -107 -8 -96 -10
-105 -10 -117 7 -26 36 -17 46 39 43 43 -3 54 0 56 14 3 13 -4 17 -27 17 -17
0 -31 5 -31 10 0 6 4 10 8 10 11 0 32 45 32 67 0 13 -8 15 -44 10 -41 -6 -44
-5 -48 18 -3 14 -3 27 0 30 10 9 61 5 68 -6 3 -6 15 -9 25 -6 11 3 26 -1 33
-9 17 -16 46 -19 46 -4 0 6 -8 10 -18 8 -12 -2 -16 3 -14 18 2 16 -6 23 -40
35 -50 16 -78 37 -78 59 0 12 -10 14 -45 12 -53 -5 -58 8 -12 37 l32 21 -47 0
c-46 0 -138 -35 -138 -52 0 -4 -9 -8 -20 -8 -11 0 -20 5 -20 10 0 6 -5 16 -10
23 -6 7 -19 23 -30 37 l-19 25 0 -180 c1 -99 4 -166 8 -150 4 17 14 41 21 55
7 14 16 31 20 39 9 22 35 35 53 28 12 -5 13 -12 5 -44 -5 -21 -12 -49 -15 -63
-3 -14 -25 -44 -49 -68 l-44 -42 -1 -303 c-1 -166 -5 -288 -9 -272 -4 17 -9
23 -10 15 -1 -8 -5 -2 -9 14 -3 16 -12 31 -19 32 -7 1 -8 0 -2 -3 5 -2 10 -14
10 -26 0 -16 -3 -18 -12 -9 -7 7 -29 12 -50 12 -25 0 -38 5 -38 13 0 14 -40
37 -65 37 -8 0 -15 -7 -15 -15 0 -11 -12 -15 -50 -15 -38 0 -52 -4 -59 -19
-14 -25 -76 -61 -107 -61 -18 0 -24 -5 -24 -21 0 -20 -3 -21 -75 -14 -96 9
-156 -1 -162 -26 -3 -10 -14 -19 -25 -19 -19 0 -88 -66 -88 -84 0 -5 -11 -24
-25 -42 -14 -18 -25 -41 -25 -50 0 -10 -9 -36 -20 -59 -11 -23 -21 -54 -22
-71 -1 -16 -10 -36 -20 -45 -19 -17 -25 -49 -9 -49 5 0 18 -22 30 -49 13 -32
31 -55 48 -63 15 -7 32 -23 39 -36 6 -12 27 -39 46 -60 42 -45 50 -67 53 -140
1 -30 7 -57 12 -61 20 -13 35 -55 39 -110 8 -109 -30 -122 -301 -105 -94 6
-115 1 -190 -44 -30 -19 -38 -32 -94 -154 -42 -89 -79 -112 -172 -106 -39 3
-77 12 -95 24 -16 10 -30 19 -32 20 -1 1 -4 10 -6 21 -3 11 -9 38 -15 59 -6
22 -11 63 -11 93 0 41 -7 66 -27 100 -46 79 -83 99 -201 108 -58 4 -97 13
-119 26 -30 17 -33 23 -33 69 0 47 11 83 46 151 8 16 14 37 14 48 0 10 5 19
11 19 7 0 9 16 5 47 -12 113 -16 123 -75 180 -31 31 -71 62 -88 70 -18 7 -33
18 -33 23 0 6 -9 10 -20 10 -10 0 -24 9 -30 21 -7 11 -20 29 -31 40 -16 16
-19 34 -19 119 0 62 -5 113 -13 133 -8 18 -15 35 -16 39 -6 28 -19 45 -50 72
-19 17 -39 37 -45 44 -33 39 -66 64 -106 79 -25 9 -48 21 -51 25 -3 5 -76 5
-162 2 l-157 -7 0 -176 c0 -158 2 -177 18 -187 25 -16 26 -61 2 -74 -20 -11
-20 -25 -20 -1794 l0 -1784 44 -11 c25 -6 61 -11 80 -11 25 0 36 -4 36 -15 0
-11 11 -15 40 -15 31 0 40 4 40 17 0 9 7 23 16 32 8 9 25 36 37 61 12 25 37
55 57 67 19 13 46 32 60 43 18 14 40 20 77 20 31 0 54 5 57 13 5 9 7 9 12 0 8
-18 24 -16 39 3 7 10 30 18 56 20 24 2 60 6 79 9 19 4 79 6 134 5 90 -1 98 0
94 17 -4 16 2 18 79 15 64 -3 83 -7 83 -18 0 -10 12 -14 40 -14 22 0 40 -4 40
-10 0 -5 18 -10 40 -10 22 0 40 5 40 10 0 6 49 10 128 10 100 0 132 3 150 16
13 9 28 14 35 11 9 -3 11 10 8 46 -3 44 -9 56 -42 88 -21 21 -39 42 -39 47 0
5 -34 13 -75 17 -66 6 -80 4 -111 -14 -42 -25 -54 -26 -54 -6 0 12 -17 15 -82
17 -46 0 -89 2 -96 2 -22 2 -43 37 -33 54 5 9 6 25 1 36 -12 33 -5 88 13 98
10 5 17 18 17 28 0 10 10 26 21 34 19 13 31 28 71 91 7 10 25 32 41 48 15 16
27 36 27 46 0 9 8 26 18 37 10 10 33 51 52 91 29 60 40 73 65 79 17 3 35 10
41 15 6 5 49 7 96 4 64 -3 90 -1 104 10 10 8 31 15 47 15 15 0 27 4 27 8 0 5
11 15 25 22 14 7 25 22 25 32 0 10 5 18 10 18 6 0 10 18 10 40 0 22 -4 40 -10
40 -5 0 -10 10 -10 23 0 13 -6 29 -12 36 -10 11 -10 14 0 18 6 3 12 18 12 35
0 23 -4 29 -15 24 -8 -3 -16 -1 -16 4 -1 6 -2 14 -3 19 -2 16 -14 24 -41 26
-14 2 -25 -2 -25 -8 0 -8 -3 -8 -8 -2 -8 12 -22 13 -40 2 -7 -5 -19 -2 -28 7
-8 9 -19 16 -24 16 -4 0 -10 9 -13 20 -3 11 -12 20 -21 20 -10 0 -18 13 -22
37 -4 21 -10 40 -14 43 -9 6 -50 125 -50 144 0 8 -5 16 -11 18 -15 5 -17 230
-3 249 6 8 17 32 24 54 7 22 18 47 25 55 7 8 16 25 19 37 10 32 70 91 101 99
60 15 181 -41 210 -96 9 -16 19 -30 24 -30 19 0 23 -95 6 -141 -29 -76 -44
-106 -60 -119 -8 -7 -15 -21 -15 -31 0 -21 -21 -71 -33 -80 -7 -5 -4 -155 4
-197 1 -7 13 -15 26 -18 27 -7 31 -34 6 -35 -29 -1 16 -17 50 -18 15 -1 27 -5
27 -11 0 -5 17 -10 38 -10 20 0 60 -7 87 -17 79 -26 202 -87 198 -98 -4 -12
52 -45 76 -45 9 0 26 -7 37 -15 25 -19 124 -20 124 -1 0 23 232 32 289 12 61
-22 91 -21 91 4 0 11 7 20 16 20 10 0 13 -6 10 -18 -5 -13 1 -22 18 -30 32
-14 66 -5 66 19 0 12 -5 16 -15 13 -9 -4 -19 3 -26 20 -7 14 -25 31 -41 38
-15 7 -28 17 -28 21 0 18 21 47 34 47 8 0 16 7 20 15 7 20 53 19 64 -2 9 -15
13 -15 58 0 59 19 68 13 31 -19 -24 -21 -25 -24 -9 -24 11 0 25 6 31 14 7 8
21 12 31 9 25 -7 26 15 3 33 -17 12 -17 14 3 41 26 34 45 36 60 5 10 -21 13
-22 27 -8 9 9 23 13 32 9 15 -5 16 -3 6 16 -7 12 -16 19 -21 16 -5 -3 -17 -1
-27 6 -14 8 -30 6 -69 -10 -52 -20 -52 -20 -90 0 -46 23 -58 24 -77 4 -17 -16
-28 -10 -20 11 3 8 0 14 -6 14 -6 0 -11 -7 -11 -15 0 -8 -8 -15 -17 -15 -13 0
-14 3 -5 12 7 7 12 22 12 35 0 36 -27 17 -28 -20 -3 -55 -10 -95 -21 -114 -7
-13 -10 79 -11 320 0 326 1 337 19 337 31 0 51 11 51 27 0 15 -12 15 -52 -2
-16 -6 -17 6 -17 168 0 146 3 175 15 173 8 -1 20 -8 26 -14 7 -7 22 -12 35
-12 13 0 23 -4 23 -9 0 -5 3 -18 6 -28 4 -13 3 -15 -4 -4 -7 9 -12 10 -16 2
-7 -11 5 -15 38 -11 37 4 86 -11 86 -25 0 -20 5 -19 34 8 25 23 25 23 3 23
-18 -1 -22 4 -19 25 2 22 -3 28 -25 32 -16 4 -35 11 -43 16 -12 8 -12 12 3 29
26 29 22 52 -10 53 l-28 0 25 11 c29 13 26 12 66 21 17 5 43 3 59 -3 23 -9 35
-7 68 9 37 19 67 19 67 1 0 -5 -5 -12 -10 -15 -6 -3 -10 -10 -10 -16 0 -16 20
-10 48 16 15 14 34 25 44 25 9 0 25 11 35 25 21 29 78 40 78 15 0 -8 -7 -15
-15 -15 -21 0 -60 -24 -60 -36 0 -12 89 -3 130 14 14 5 42 13 62 17 63 12 30
-23 -41 -44 -34 -10 -63 -22 -66 -26 -3 -4 12 -11 33 -15 48 -9 55 -14 42 -30
-7 -8 -9 -19 -5 -25 3 -6 -3 -10 -14 -10 -12 0 -21 -4 -21 -10 0 -5 13 -10 29
-10 23 0 31 6 40 30 5 17 15 30 20 30 6 0 11 4 11 9 0 4 -11 6 -25 3 -20 -3
-25 0 -25 15 0 24 30 40 92 47 68 8 108 -2 108 -26 0 -18 -4 -20 -46 -13 -30
4 -50 2 -60 -5 -23 -20 -6 -30 39 -24 23 3 62 6 86 7 25 1 46 7 48 14 3 9 -4
11 -26 7 -24 -5 -31 -3 -31 10 0 14 27 20 66 15 9 -1 24 23 24 37 0 13 -48 36
-61 29 -5 -4 -9 -1 -9 5 0 7 -12 9 -35 4 -40 -7 -47 7 -14 30 17 11 20 21 15
42 -7 26 -8 27 -67 21 -66 -6 -81 -13 -59 -27 23 -15 5 -12 -26 4 -15 8 -32
12 -38 8 -6 -3 -17 -7 -26 -7 -8 -1 -30 -5 -48 -9 -26 -6 -32 -5 -32 9 0 9 9
19 20 22 11 3 20 9 20 14 0 9 -23 12 -77 9 -18 -1 -33 3 -33 9 0 11 51 41 70
41 6 0 27 7 47 15 33 14 35 16 19 28 -17 13 -17 14 -1 30 9 9 25 17 34 17 32
0 51 52 24 68 -20 13 -3 62 28 77 31 16 79 20 79 6 0 -4 16 -3 35 3 19 6 35
14 35 18 0 4 7 5 15 2 18 -7 20 -40 3 -47 -10 -4 -10 -6 0 -6 7 -1 16 7 19 16
12 31 32 45 75 51 51 6 82 30 66 49 -5 7 -8 22 -5 33 5 20 4 21 -57 24 -30 2
-31 25 -2 36 29 11 32 20 14 38 -10 10 -8 12 11 10 13 -2 26 3 28 10 3 7 -1
10 -11 6 -22 -8 -20 13 2 25 23 12 97 -2 121 -23 9 -9 25 -16 34 -16 9 0 19
-5 22 -10 4 -6 29 -9 57 -8 62 4 76 -16 21 -29 -33 -8 -38 -13 -36 -36 1 -15
-3 -27 -10 -27 -8 0 -8 -3 1 -9 14 -8 82 9 82 21 0 17 47 7 70 -14 21 -20 24
-20 35 -5 7 9 15 14 18 10 4 -3 9 2 13 11 3 9 12 16 20 16 8 0 14 4 14 9 0 5
19 12 43 16 23 4 50 11 60 17 9 5 17 5 17 0 0 -12 -30 -37 -53 -45 -22 -8 -19
-40 5 -45 11 -2 18 5 20 20 2 18 10 24 38 26 l34 4 -24 -20 c-14 -11 -22 -24
-18 -28 4 -4 13 -2 21 4 8 7 18 7 27 2 22 -14 30 -12 24 4 -4 11 0 13 17 9 14
-4 20 -2 15 5 -3 6 -1 14 5 18 12 7 31 -15 23 -28 -8 -13 19 -9 50 7 35 18 47
19 40 3 -2 -7 -22 -21 -43 -32 -25 -12 -38 -23 -34 -32 6 -16 24 -19 21 -3 -2
6 7 18 19 26 16 10 23 12 23 4 0 -7 4 -10 9 -6 6 3 15 -5 22 -17 11 -21 11
-22 -4 -10 -13 11 -15 10 -10 -7 7 -26 23 -27 55 -1 26 20 48 12 48 -18 0 -9
7 -11 20 -7 32 10 79 -16 86 -48 7 -33 -16 -56 -55 -57 -25 0 -92 -16 -126
-30 -11 -5 -37 -11 -57 -15 -21 -3 -55 -15 -77 -27 -34 -18 -38 -23 -28 -39
12 -20 -5 -49 -29 -49 -8 0 -14 -4 -14 -9 0 -9 -47 -25 -66 -23 -6 1 -21 -9
-34 -23 -21 -22 -22 -28 -10 -35 13 -8 13 -10 -1 -10 -9 0 -19 -9 -22 -20 -7
-28 -24 -25 -29 5 -3 13 -1 22 3 19 5 -3 9 4 9 14 0 12 9 22 23 27 12 3 17 9
10 11 -6 3 -32 -11 -58 -30 -26 -20 -50 -36 -55 -36 -17 0 -20 18 -5 30 20 17
19 30 -2 24 -10 -2 -7 1 7 8 14 6 26 13 28 14 2 1 -4 14 -13 28 -11 17 -15 35
-11 51 l7 26 -21 -21 c-23 -23 -60 -27 -60 -5 0 8 -5 15 -11 15 -6 0 -9 -7 -6
-14 4 -10 1 -13 -7 -10 -20 8 -30 -28 -12 -41 21 -16 24 -65 5 -78 -9 -5 -29
-7 -45 -3 l-29 8 24 20 c21 16 22 21 10 29 -11 7 -11 9 -1 9 31 0 3 24 -32 28
-29 3 -49 -4 -89 -29 -29 -19 -55 -37 -58 -42 -3 -4 -12 -5 -21 -2 -9 4 -19
-3 -26 -19 -8 -17 -17 -23 -30 -19 -13 3 -21 -2 -25 -16 -3 -11 -17 -25 -31
-31 -14 -5 -26 -14 -26 -20 0 -12 6 -13 28 -1 9 5 32 11 50 14 19 3 42 13 51
21 24 22 31 20 31 -8 0 -19 4 -22 24 -19 18 4 27 -1 36 -17 7 -12 18 -19 26
-16 8 3 14 -1 14 -9 0 -19 8 -19 45 1 35 18 117 35 109 23 -3 -5 -12 -9 -20
-9 -8 0 -14 -4 -14 -10 0 -5 7 -10 16 -10 10 0 14 -5 10 -16 -3 -8 -2 -12 4
-9 5 3 18 1 29 -4 16 -9 25 -5 50 19 29 29 30 30 41 11 5 -11 10 -27 10 -35 0
-16 5 -18 35 -18 46 0 55 3 55 21 0 13 -5 18 -17 15 -10 -2 -24 0 -32 5 -11 7
-10 13 5 35 11 14 26 26 34 26 9 0 21 14 27 30 6 16 16 30 22 30 16 0 13 -20
-3 -26 -8 -3 -14 -19 -13 -38 1 -31 3 -33 31 -32 40 1 42 -25 3 -35 -33 -9
-77 -56 -77 -81 0 -11 -5 -15 -14 -12 -8 3 -17 1 -21 -5 -3 -7 2 -11 14 -11
11 0 22 -4 25 -9 4 -5 18 -4 34 4 50 24 82 27 82 9 0 -12 6 -15 20 -10 11 3
29 9 41 12 15 5 22 1 26 -15 4 -17 8 -19 20 -10 10 9 17 9 25 1 9 -9 8 -12 -5
-12 -9 0 -17 -5 -17 -11 0 -6 8 -8 18 -5 9 2 32 7 50 11 29 6 32 4 32 -17 0
-36 -12 -45 -60 -46 -46 -2 -70 -15 -50 -27 6 -4 23 -2 38 3 15 6 41 11 57 11
55 -1 97 13 102 32 3 11 17 22 32 24 14 3 39 10 55 15 39 13 49 4 30 -25 -16
-25 -3 -45 19 -27 17 14 48 9 79 -12 35 -23 86 -15 113 16 12 15 20 18 23 10
4 -12 -48 -100 -74 -127 -7 -7 -12 -26 -11 -42 2 -29 3 -29 28 -14 25 14 54
75 44 91 -2 4 7 18 22 31 l25 24 -6 -22 c-6 -19 -4 -23 14 -23 17 0 19 -4 14
-26 -7 -26 -6 -27 30 -20 34 6 36 5 36 -19 0 -14 -5 -25 -11 -25 -8 0 -8 -5 1
-15 10 -12 10 -18 0 -31 -11 -12 -11 -27 -1 -79 7 -35 10 -69 6 -75 -7 -12
-15 -86 -20 -195 -1 -38 -5 -95 -9 -125 -3 -30 -8 -109 -11 -175 -7 -131 -17
-210 -41 -323 -12 -54 -13 -77 -5 -85 14 -14 15 -57 1 -57 -5 0 -10 -5 -10
-11 0 -5 5 -7 11 -4 7 5 9 -21 7 -84 -2 -50 -1 -91 4 -91 4 0 7 -44 7 -97 0
-54 2 -142 5 -196 5 -77 2 -118 -15 -199 -20 -97 -20 -102 -3 -134 24 -43 10
-91 -24 -86 -22 3 -31 -13 -11 -20 16 -5 -26 -95 -50 -108 -17 -8 -21 -8 -21
3 0 8 6 20 14 26 13 11 12 15 -2 32 -23 27 -29 24 -36 -16 -4 -19 -16 -39 -26
-45 -13 -7 -20 -21 -20 -40 0 -34 13 -45 30 -25 7 8 16 12 21 9 5 -3 6 1 3 9
-3 8 -1 18 5 22 6 3 11 0 11 -8 0 -16 41 -57 58 -57 17 0 15 -14 -8 -43 -11
-14 -20 -30 -20 -35 0 -5 -12 -13 -27 -17 -20 -5 -23 -9 -14 -15 8 -4 12 -17
8 -29 -3 -12 -1 -21 4 -21 5 0 9 -9 9 -21 0 -11 -4 -17 -10 -14 -5 3 -19 1
-30 -5 -15 -8 -20 -8 -20 3 0 7 -15 18 -32 25 -36 13 -68 62 -42 62 8 0 17 -7
20 -15 9 -24 22 -18 22 11 0 34 17 51 35 35 19 -15 67 2 67 25 0 12 -7 14 -32
10 -86 -13 -128 -28 -128 -45 0 -9 -64 10 -76 22 -4 4 -16 7 -27 7 -16 0 -17
3 -7 14 10 13 16 12 46 -5 43 -23 44 -24 44 0 0 23 -12 27 -75 26 -41 -1 -51
-4 -54 -20 -2 -10 -9 -25 -17 -33 -18 -18 -18 -32 1 -32 8 0 15 5 15 11 0 6 5
9 12 7 13 -5 19 -34 18 -99 0 -34 6 -51 20 -64 20 -18 21 -18 45 5 31 29 42
22 14 -9 -11 -12 -18 -28 -15 -36 5 -14 -49 -39 -64 -30 -5 3 -7 -7 -6 -22 2
-16 -1 -34 -6 -40 -14 -17 3 -16 26 2 11 8 17 18 13 21 -10 11 64 46 85 41 12
-4 31 5 52 24 19 16 37 29 41 29 5 0 23 11 41 25 37 29 59 32 50 9 -3 -9 -6
-18 -6 -20 0 -2 -8 -4 -18 -4 -10 0 -38 -13 -63 -28 -87 -56 -95 -79 -33 -101
25 -9 34 -17 30 -28 -5 -12 -1 -14 16 -10 12 4 28 1 35 -5 9 -7 13 -7 13 0 0
17 40 36 52 24 11 -11 -1 -40 -28 -66 -9 -10 -11 -16 -4 -16 20 0 40 -28 40
-55 0 -14 6 -28 14 -31 14 -5 15 -52 1 -73 -8 -15 -54 12 -57 34 -4 25 -30 30
-68 13 -30 -13 -44 -35 -15 -25 8 4 22 -4 34 -18 l19 -25 829 0 c817 0 830 0
848 20 10 11 23 20 28 20 6 0 2 -9 -8 -20 -18 -19 -17 -20 4 -20 14 0 25 7 28
20 3 11 9 20 14 20 5 0 9 3 9 8 0 4 -18 6 -40 4 -35 -4 -39 -2 -33 14 4 11 3
15 -4 11 -15 -9 -26 24 -13 37 16 16 12 26 -11 26 -18 0 -19 2 -9 15 14 17 7
30 -17 30 -9 0 -18 6 -20 13 -3 7 1 10 11 6 9 -3 16 -1 16 5 0 7 -7 14 -15 17
-8 4 -12 11 -9 16 4 6 8 20 8 32 1 11 7 20 14 18 7 -1 12 7 12 18 0 24 35 28
43 6 4 -10 1 -13 -7 -10 -8 3 -16 -4 -19 -15 -3 -12 1 -22 9 -25 8 -3 14 -15
14 -26 0 -17 3 -19 19 -10 27 14 51 2 51 -26 0 -13 5 -24 11 -24 18 0 5 52
-16 64 -11 6 -22 12 -25 14 -2 2 1 6 7 10 17 11 -23 71 -53 78 -13 3 -24 12
-24 20 0 7 -14 24 -31 36 -26 19 -30 28 -25 52 4 16 13 37 21 46 20 23 30 102
16 129 -8 14 -8 21 -1 21 6 0 15 11 20 25 8 21 14 24 37 19 33 -8 56 -33 48
-52 -6 -16 12 -42 28 -42 6 0 3 6 -7 13 -22 16 -12 45 17 49 53 8 3 53 -68 60
-43 4 -47 41 -7 62 26 14 48 43 39 52 -2 2 -20 5 -40 6 -43 3 -44 6 -16 37 16
17 19 29 14 49 -4 15 -9 53 -11 85 -2 44 0 59 11 64 8 3 15 14 15 25 0 14 -5
18 -16 14 -13 -5 -15 -1 -10 22 3 15 10 56 17 92 12 70 28 106 72 158 25 30
31 45 28 65 -1 4 4 18 11 30 7 12 11 28 10 34 -2 7 3 13 10 13 10 0 10 2 -1 9
-8 5 -12 18 -8 30 3 14 1 19 -6 14 -7 -4 -8 0 -2 13 5 10 8 28 7 39 -1 11 -4
45 -6 76 -3 43 -13 69 -41 113 -27 43 -34 61 -26 69 9 9 17 8 31 -1 11 -7 21
-8 25 -2 9 15 -5 58 -22 64 -11 4 -13 2 -10 -9 4 -8 2 -17 -3 -20 -13 -8 -12
3 4 94 13 72 25 91 58 91 18 0 16 -21 -5 -47 -5 -7 -6 -24 -3 -37 7 -28 -11
-46 -20 -22 -8 20 -24 21 -24 1 0 -8 9 -19 20 -25 14 -7 20 -7 20 0 0 15 26
12 40 -5 7 -9 20 -15 29 -13 8 2 26 -7 40 -19 13 -13 35 -23 49 -23 22 0 24
-3 19 -30 -5 -20 -3 -30 6 -30 6 0 22 -3 34 -6 17 -5 22 0 28 24 8 37 31 48
53 25 13 -12 13 -15 2 -11 -13 4 -70 -47 -70 -64 0 -5 -7 -8 -15 -8 -8 0 -15
5 -15 10 0 6 -4 10 -10 10 -5 0 -10 -7 -10 -15 0 -14 14 -19 48 -18 6 1 12 -3
12 -9 0 -5 4 -7 9 -4 5 3 7 14 4 25 -5 20 27 34 53 24 19 -7 18 -43 -1 -43 -8
0 -15 -7 -15 -15 0 -18 21 -20 37 -4 13 13 53 -22 53 -47 0 -14 3 -14 15 -4
12 10 15 10 15 -4 0 -10 -9 -16 -25 -16 -15 0 -25 -6 -25 -14 0 -8 11 -13 26
-13 15 0 30 -6 34 -13 5 -8 10 -9 14 -2 4 6 26 9 51 6 34 -3 45 0 45 10 0 8
-6 17 -12 19 -7 3 -4 6 7 6 44 1 52 -18 30 -71 -8 -19 18 -19 37 0 7 7 25 12
40 12 19 0 28 5 28 16 0 22 -41 64 -62 64 -11 0 -18 8 -18 20 0 25 17 25 53 1
21 -13 25 -20 15 -25 -7 -3 5 -3 26 1 27 4 37 2 32 -5 -8 -14 10 -52 25 -52 5
0 21 12 34 26 14 15 25 22 25 16 0 -6 -4 -13 -10 -17 -6 -4 -6 -15 0 -31 6
-14 8 -30 5 -35 -8 -11 39 -23 70 -17 13 3 22 1 19 -3 -3 -5 -12 -9 -21 -9 -9
0 -13 -3 -10 -7 4 -3 2 -12 -4 -20 -9 -10 -7 -13 10 -13 13 0 21 -6 21 -17 0
-10 16 -32 35 -49 l36 -31 -31 -7 c-20 -4 -29 -10 -24 -17 4 -8 3 -9 -5 -5 -6
4 -9 12 -6 17 10 15 -21 10 -34 -5 -13 -15 1 -32 18 -22 11 7 33 -46 29 -70
-4 -25 32 -31 49 -8 12 16 13 13 13 -23 0 -38 -2 -40 -41 -52 -49 -15 -50 -41
-1 -57 18 -6 42 -23 52 -38 l18 -28 17 36 c12 25 21 34 28 27 7 -7 6 -15 -3
-26 -12 -14 -11 -18 0 -25 18 -11 30 -3 30 21 0 10 6 19 13 19 9 0 12 -11 9
-34 -3 -25 -8 -33 -18 -29 -8 3 -14 -1 -14 -10 0 -14 28 -30 55 -32 5 0 14 -9
20 -21 11 -22 11 -22 93 14 40 18 45 14 27 -21 -16 -32 -13 -34 48 -39 20 -2
37 -7 37 -11 0 -4 0 -11 0 -17 0 -5 -11 -10 -25 -10 -27 0 -34 -17 -11 -26 8
-3 12 -13 9 -25 -4 -13 0 -19 12 -19 9 0 28 -9 42 -20 14 -11 41 -20 59 -20
33 0 34 -1 34 -39 0 -22 6 -44 15 -51 14 -12 19 -7 16 13 -2 14 22 -5 58 -45
19 -21 40 -38 47 -38 7 0 16 -10 19 -21 10 -30 25 -5 25 39 0 18 5 43 11 54
10 18 8 25 -10 39 -26 21 -12 29 38 21 l34 -5 -23 42 c-35 61 -56 78 -80 63
-35 -22 -50 -15 -50 23 0 19 5 35 10 35 6 0 10 -8 8 -18 -3 -19 12 -20 58 -1
35 14 74 5 56 -13 -7 -7 -7 -18 1 -37 16 -38 36 -51 67 -44 15 3 31 0 34 -6 4
-7 -1 -11 -13 -11 -28 0 -27 -5 9 -40 34 -33 41 -35 58 -18 9 9 12 6 12 -15 0
-15 -4 -27 -10 -27 -5 0 -10 3 -10 8 0 4 -11 8 -25 8 -14 1 -25 -3 -25 -10 0
-18 -50 -18 -56 -1 -9 22 -40 18 -57 -8 -8 -13 -17 -41 -19 -63 -3 -39 -3 -39
35 -42 22 -2 53 2 70 7 38 14 63 -3 26 -18 -13 -5 -35 -21 -48 -37 -23 -26
-25 -27 -32 -8 -7 18 -8 18 -8 -2 -1 -11 -6 -25 -11 -30 -17 -17 -22 -65 -9
-80 6 -8 9 -27 5 -44 -5 -29 -4 -30 33 -30 76 0 97 -24 31 -35 -56 -9 -100
-33 -100 -54 0 -21 -57 -78 -67 -67 -4 4 -3 13 2 20 60 83 76 108 71 113 -9
10 -47 -29 -42 -43 2 -6 -7 -22 -20 -35 l-25 -24 10 27 c7 18 7 28 0 30 -6 2
-7 11 -4 20 4 9 12 15 20 12 7 -3 15 3 19 12 9 23 0 30 -19 14 -13 -11 -15 -9
-15 14 0 24 -2 25 -20 16 -11 -6 -20 -8 -20 -4 0 3 -7 1 -15 -6 -8 -7 -15 -18
-15 -24 0 -6 6 -4 13 5 10 13 15 14 24 4 9 -10 7 -14 -13 -19 -15 -4 -24 -14
-24 -26 0 -21 -15 -33 -42 -35 -15 -1 -15 1 3 23 15 19 16 28 8 39 -9 10 -15
10 -25 2 -10 -8 -14 -8 -14 0 0 6 5 11 10 11 6 0 10 7 10 16 0 8 5 12 10 9 17
-11 11 4 -11 26 -11 11 -18 27 -15 35 3 8 1 14 -4 14 -6 0 -10 -4 -10 -10 0
-11 -51 -6 -78 9 -12 7 -23 7 -26 2 -9 -15 4 -40 25 -46 21 -7 23 -13 9 -35
-8 -12 -12 -11 -31 9 -17 18 -23 20 -30 10 -4 -7 -3 -19 2 -26 6 -7 7 -17 3
-24 -5 -8 -9 -7 -16 5 -15 28 -116 68 -139 56 -15 -8 -19 -7 -19 5 0 8 5 15
10 15 19 0 10 51 -13 74 -13 13 -21 28 -19 34 1 5 -2 13 -7 17 -6 3 -11 15
-11 26 0 12 -7 19 -19 19 -10 0 -24 7 -31 15 -15 19 -30 19 -30 2 0 -8 11 -19
25 -25 30 -14 31 -23 5 -47 -19 -18 -20 -17 -20 5 0 15 -4 20 -15 17 -8 -4
-17 -2 -20 4 -9 14 -25 1 -25 -22 0 -21 -10 -25 -27 -8 -8 8 -13 8 -17 0 -12
-19 -29 -12 -23 10 4 16 1 20 -16 17 -12 -2 -21 -9 -19 -16 1 -7 -3 -12 -10
-11 -27 3 -36 -2 -41 -21 -3 -11 -12 -20 -21 -20 -9 0 -16 -7 -16 -15 0 -19
-4 -19 54 10 55 28 72 31 73 13 0 -7 4 -22 9 -32 5 -13 4 -17 -3 -13 -14 9
-27 -8 -44 -56 -8 -24 -19 -37 -31 -37 -10 0 -18 -7 -18 -15 0 -8 -5 -15 -11
-15 -7 0 -9 -10 -5 -26 5 -19 3 -25 -6 -22 -8 3 -17 -9 -23 -30 -10 -36 -35
-56 -35 -29 0 9 -13 18 -30 22 -20 4 -30 13 -30 25 0 27 -26 45 -45 30 -13
-10 -15 -9 -15 10 0 19 4 21 24 16 30 -7 44 9 19 22 -20 10 -43 5 -56 -12 -6
-8 -10 -8 -13 1 -3 7 -12 9 -21 6 -12 -5 -14 -1 -9 15 7 22 1 23 -66 13 -5 0
-8 -6 -8 -12 0 -7 10 -9 25 -5 21 5 27 2 35 -18 5 -13 18 -27 29 -31 24 -7 26
-16 9 -33 -9 -9 -7 -12 10 -12 16 0 20 -4 16 -17 -3 -10 -8 -24 -10 -31 -6
-20 -41 3 -48 31 -5 23 -53 54 -64 42 -3 -3 -12 1 -21 9 -9 8 -25 16 -36 18
-27 4 -33 38 -7 38 26 0 33 9 20 30 -17 26 -3 53 23 45 18 -6 21 -4 15 10 -4
12 1 27 17 44 27 30 41 61 27 61 -6 0 -10 -7 -10 -15 0 -31 -27 -15 -28 17 -1
42 6 52 24 33 14 -14 19 -13 45 6 33 23 39 35 10 20 -15 -8 -22 -6 -37 14 -19
26 -67 35 -79 15 -12 -19 -57 -11 -62 10 -4 14 -12 20 -27 18 -24 -3 -38 -28
-25 -44 6 -7 0 -16 -16 -24 -22 -12 -27 -11 -45 5 -19 18 -21 18 -33 1 -12
-16 -16 -17 -35 -5 -12 8 -22 19 -22 26 0 7 -8 16 -17 22 -14 7 -22 2 -40 -24
-13 -19 -23 -38 -23 -43 0 -15 29 -23 56 -16 20 5 23 3 17 -12 -4 -12 -3 -15
5 -10 7 4 15 1 18 -8 3 -9 15 -16 25 -16 10 0 19 -4 19 -10 0 -5 -4 -10 -10
-10 -18 0 -11 -17 9 -23 13 -3 21 1 24 15 3 11 10 17 16 14 6 -4 8 -13 4 -21
-6 -18 8 -20 24 -4 27 27 73 -34 73 -98 l0 -34 -39 23 c-22 12 -43 20 -46 16
-9 -9 17 -48 32 -48 7 0 13 -4 13 -9 0 -5 10 -11 23 -13 15 -2 21 -9 20 -23
-1 -17 5 -20 40 -22 23 -2 44 -8 45 -13 2 -6 19 -17 38 -25 19 -8 34 -21 34
-29 0 -8 9 -20 20 -26 16 -9 22 -8 26 5 4 8 14 14 23 13 12 -2 16 5 16 30 0
17 3 32 7 32 5 0 8 -9 8 -19 0 -11 6 -22 13 -24 9 -4 9 -6 0 -6 -22 -2 -14
-21 7 -21 12 0 24 -9 29 -22 18 -48 83 -78 122 -58 16 9 23 7 39 -12 11 -13
19 -29 20 -35 0 -7 7 -13 15 -13 8 0 15 -4 15 -9 0 -11 -59 -20 -65 -10 -6 9
-59 6 -63 -4 -7 -16 5 -30 28 -32 13 -1 25 -6 27 -11 3 -8 -13 -12 -69 -17
-10 -1 -20 -7 -22 -14 -4 -10 27 -13 145 -13 124 0 153 3 166 16 15 14 17 14
25 0 11 -19 44 -21 51 -3 4 9 6 9 6 0 1 -10 60 -13 262 -13 178 0 258 3 254
10 -13 22 17 40 64 39 l46 -1 -35 -9 c-60 -17 -66 -19 -53 -27 6 -4 52 -9 101
-10 l89 -3 0 28 c1 15 5 57 11 93 7 47 6 74 -3 100 -9 25 -9 41 -2 59 9 19 8
26 -8 37 -10 8 -15 17 -10 21 4 5 10 2 12 -4 6 -18 23 -16 23 2 0 8 9 29 20
47 11 18 20 50 20 70 0 20 5 40 10 43 6 3 10 11 10 16 0 6 -4 8 -9 4 -13 -7
-24 30 -16 55 10 31 25 24 19 -9 -3 -16 -1 -31 4 -35 14 -8 25 28 17 54 -5 14
-2 20 9 20 9 0 16 8 16 18 0 28 31 112 41 112 5 0 9 12 9 27 0 17 3 24 10 17
6 -6 0 -37 -16 -88 -14 -44 -22 -86 -19 -93 9 -25 57 13 88 69 30 54 50 60 23
7 -17 -35 -22 -84 -7 -74 5 3 12 1 16 -5 4 -6 12 -4 22 5 20 21 28 12 12 -13
-11 -17 -11 -25 0 -45 14 -27 8 -47 -15 -47 -8 0 -14 -6 -14 -12 0 -9 -4 -8
-11 2 -8 11 -9 6 -5 -21 4 -24 2 -40 -7 -47 -13 -11 -15 17 -7 103 1 6 -1 19
-4 30 -2 11 -5 25 -6 30 0 6 -12 -3 -25 -20 -16 -19 -22 -37 -19 -51 7 -27
-19 -54 -53 -54 -20 0 -24 4 -20 20 3 11 1 20 -4 20 -5 0 -9 5 -9 10 0 6 7 10
15 10 18 0 20 16 4 26 -15 9 -30 -16 -25 -40 3 -10 -1 -28 -8 -40 -8 -11 -17
-39 -20 -61 -6 -39 -6 -39 10 -18 9 13 19 23 23 23 13 0 4 -52 -10 -61 -11 -7
-9 -9 9 -9 12 0 22 5 22 11 0 5 5 7 10 4 6 -4 8 -11 5 -16 -4 -5 1 -9 9 -9 11
0 16 -10 16 -32 0 -17 3 -28 7 -25 3 4 11 3 17 -2 6 -4 25 -4 41 0 52 14 81
115 41 141 -8 6 -7 8 2 8 6 0 12 11 12 24 0 14 5 28 10 31 6 3 10 -1 10 -11 0
-13 3 -14 15 -4 9 8 12 22 8 41 -4 21 -1 30 11 35 9 3 16 12 16 20 0 8 5 14
10 14 6 0 10 -9 10 -20 0 -12 -7 -20 -16 -20 -11 0 -15 -8 -13 -27 2 -16 -2
-37 -9 -49 -6 -11 -11 -29 -11 -40 0 -10 -3 -34 -7 -52 -6 -31 -5 -32 25 -29
17 2 40 12 51 22 11 10 23 16 26 13 3 -3 -6 -15 -20 -26 -15 -11 -26 -30 -26
-42 0 -12 -14 -36 -31 -53 -29 -28 -33 -29 -44 -14 -17 24 -60 27 -59 4 2 -20
-7 -22 -24 -5 -7 7 -13 8 -13 2 -1 -5 -2 -16 -3 -24 -1 -11 -10 -14 -33 -12
-25 2 -33 -1 -33 -12 0 -9 -7 -16 -16 -16 -11 0 -14 5 -9 18 4 9 10 24 13 32
4 11 1 10 -12 -3 -12 -12 -22 -15 -28 -9 -13 13 -1 32 20 33 14 0 13 2 -3 8
-34 14 -51 -14 -60 -98 -1 -14 -6 -52 -10 -83 l-8 -58 46 0 c38 0 47 4 52 21
5 14 2 25 -6 30 -10 6 -7 9 11 9 15 0 31 5 38 12 24 24 13 -12 -13 -39 -28
-31 -26 -40 5 -23 16 9 20 9 15 1 -5 -8 53 -11 214 -11 159 1 221 5 225 13 3
9 5 9 5 0 1 -8 15 -13 34 -13 35 0 56 17 91 73 31 50 65 45 66 -9 0 -12 8 -31
19 -42 17 -20 28 -22 139 -22 108 0 120 2 125 18 5 23 47 37 47 17 0 -8 -8
-19 -17 -24 -12 -7 456 -10 1475 -11 l1492 0 0 6400 0 6400 -35 0 -35 0 0
-1072z m-6579 -6814 c27 -25 94 -34 118 -17 18 12 21 11 29 -4 14 -26 17 -78
9 -153 -4 -36 -9 -90 -12 -120 -2 -30 -7 -82 -11 -114 -5 -44 -4 -57 4 -52 16
10 15 -7 0 -22 -13 -13 -21 -163 -10 -172 4 -3 12 -18 17 -34 6 -16 22 -37 36
-45 56 -34 89 -66 89 -85 0 -17 2 -18 10 -6 6 9 10 10 10 3 0 -19 -13 -22 -71
-15 -30 4 -71 5 -92 1 -25 -4 -43 -2 -50 6 -12 12 -43 2 -58 -18 -3 -4 -6 11
-7 34 -1 23 -4 45 -8 48 -8 8 -22 -18 -34 -61 -12 -44 -23 -52 -48 -39 -15 8
-20 26 -25 78 -3 37 -12 84 -20 103 -18 45 -29 270 -16 330 5 25 13 74 17 110
5 36 13 74 19 85 6 11 21 51 33 89 11 38 23 73 26 78 8 13 26 9 45 -8z m338
-33 c13 -9 33 -78 33 -116 -1 -11 -4 -61 -7 -112 -7 -90 -6 -93 19 -116 14
-13 26 -32 26 -41 0 -10 5 -14 10 -11 21 13 9 -33 -12 -48 -23 -15 -23 -15 -3
-31 12 -10 14 -14 5 -11 -13 4 -16 -2 -16 -29 0 -64 -21 -63 -29 0 -11 84 -19
109 -52 170 l-34 63 7 133 c7 148 16 172 53 149z m-2673 -447 c30 -26 54 -50
54 -55 0 -4 -13 -28 -29 -51 -30 -43 -25 -64 8 -34 22 20 31 20 31 1 0 -13
-21 -30 -45 -35 -27 -6 -85 -72 -85 -97 0 -11 8 -10 35 7 29 18 35 19 35 6 0
-8 -4 -17 -9 -21 -15 -9 -40 -64 -32 -69 4 -3 13 -1 21 5 8 5 23 9 33 9 15 0
15 -3 5 -21 -7 -11 -28 -29 -45 -40 -19 -12 -33 -29 -33 -40 0 -12 -7 -20 -20
-20 -11 -1 -26 -2 -32 -3 -7 -1 -12 5 -10 12 4 20 -16 14 -23 -8 -3 -11 -11
-20 -16 -20 -5 0 -9 -8 -9 -18 0 -10 -6 -26 -14 -37 -7 -11 -17 -30 -21 -43
-6 -22 -5 -23 32 -16 30 5 36 4 26 -6 -15 -16 -119 -25 -127 -11 -4 6 -3 11 2
11 11 0 32 45 32 68 0 9 16 35 35 56 19 22 37 47 40 56 3 9 17 22 31 29 14 6
22 16 19 21 -10 16 -40 11 -69 -11 -14 -11 -26 -17 -26 -12 0 4 -4 1 -10 -7
-5 -8 -12 -11 -16 -7 -4 3 -1 14 6 22 17 20 23 132 11 185 -5 24 -5 42 0 46
12 7 11 51 -1 59 -12 8 17 55 35 55 17 0 27 42 12 52 -14 9 -10 12 28 26 47
17 82 6 141 -44z m3435 -500 c19 -8 40 -19 48 -23 8 -4 22 -27 30 -52 9 -24
21 -48 26 -54 28 -27 46 -55 50 -76 10 -54 27 -79 52 -79 20 0 24 -4 21 -22
-2 -14 -9 -22 -18 -20 -8 2 -12 0 -7 -4 4 -4 -1 -16 -10 -27 -10 -11 -13 -17
-7 -14 7 4 14 0 18 -8 3 -10 -1 -15 -13 -15 -22 0 -32 20 -24 49 4 17 2 20
-11 15 -10 -4 -22 0 -29 10 -9 12 -19 14 -42 7 -16 -5 -24 -10 -17 -10 9 -1
11 -8 7 -20 -4 -13 0 -23 11 -29 21 -12 21 -69 -1 -113 -10 -19 -36 -59 -59
-89 -22 -30 -45 -62 -51 -71 -42 -66 -95 -142 -131 -186 -75 -92 -80 -122 -20
-115 27 3 40 -2 67 -27 l34 -31 -52 20 c-65 24 -84 19 -77 -23 l4 -32 -13 35
c-20 52 -39 44 -64 -28 -40 -113 -180 -312 -271 -386 -44 -36 -92 -48 -92 -23
0 20 57 59 66 46 4 -7 12 2 20 21 11 25 12 42 4 71 -14 51 -34 49 -50 -3 -14
-45 -57 -118 -70 -118 -15 0 10 71 51 152 5 10 9 32 9 49 0 27 -2 29 -15 15
-8 -8 -15 -26 -15 -40 0 -14 -10 -33 -24 -44 -14 -10 -42 -50 -62 -87 -21 -38
-40 -63 -42 -57 -2 7 14 55 37 106 46 108 86 255 72 269 -5 5 -11 -11 -16 -38
-5 -34 -12 -49 -25 -52 -10 -3 -23 -17 -29 -32 -6 -14 -22 -40 -35 -56 -20
-25 -24 -27 -23 -10 1 14 -3 19 -15 17 -25 -4 -22 5 13 40 23 23 29 38 27 61
-3 34 -9 38 -110 82 -91 40 -71 75 32 55 30 -6 62 -8 72 -4 19 6 25 39 8 49
-5 3 -10 -1 -10 -9 0 -9 -4 -16 -9 -16 -5 0 -8 8 -7 17 0 10 -8 19 -19 21 -33
7 -47 23 -34 38 9 11 5 16 -15 25 -15 7 -26 20 -26 31 0 10 -7 21 -15 24 -8 4
-15 15 -15 26 0 12 -15 41 -33 67 -41 57 -77 119 -77 131 0 5 -13 39 -30 75
-35 76 -37 89 -11 82 11 -2 25 3 35 15 13 14 24 17 50 13 20 -4 36 -2 40 4 5
7 14 7 30 0 16 -8 30 -8 42 -1 14 7 23 6 32 -4 11 -12 10 -14 -5 -15 -16 0
-16 -1 2 -9 29 -12 36 -12 34 3 -3 26 2 37 17 37 10 0 14 -5 10 -15 -8 -21 4
-76 15 -69 5 3 9 -6 9 -20 0 -24 44 -66 70 -66 14 0 62 -56 76 -89 5 -14 16
-53 23 -86 7 -33 17 -69 22 -80 5 -11 11 -105 14 -210 3 -104 5 -194 5 -200 1
-5 9 6 20 25 12 22 19 28 20 18 0 -10 7 -18 15 -18 28 0 33 25 65 320 5 52 12
158 16 235 3 77 7 158 8 180 2 22 0 63 -3 90 -8 63 12 121 43 127 36 6 51 -1
63 -32 8 -23 18 -30 37 -30 15 0 30 -8 35 -19 6 -10 21 -21 35 -25 18 -4 26
-16 33 -43 5 -24 17 -42 31 -48 12 -5 22 -18 22 -29 0 -14 5 -17 26 -13 19 3
24 1 20 -9 -20 -48 -20 -48 -2 -41 14 6 17 3 12 -9 -5 -14 -4 -15 9 -4 19 16
19 30 0 30 -21 0 -19 18 4 25 12 4 17 12 14 24 -3 13 2 20 17 24 17 4 20 10
15 29 -8 29 -44 128 -54 148 -4 8 -8 32 -9 52 -2 28 2 40 18 48 24 13 25 25 5
63 -18 35 -31 127 -18 127 6 0 25 -7 44 -16z m-528 -326 c2 -7 0 -26 -4 -41
-5 -16 -4 -52 1 -79 13 -64 13 -125 1 -132 -5 -4 -12 6 -16 21 -4 18 -17 33
-38 43 -23 11 -32 22 -33 40 -1 14 -2 27 -3 30 -5 10 -13 46 -18 78 -6 35 11
45 20 12 7 -26 35 -16 48 16 9 26 34 32 42 12z m1386 -865 c37 -16 61 -33 61
-43 0 -28 -29 -125 -39 -128 -5 -2 -20 -12 -32 -23 -14 -12 -32 -18 -44 -15
-11 2 -46 8 -77 11 -34 4 -63 14 -73 25 -15 16 -12 19 39 44 58 28 57 27 82
129 3 15 10 27 14 27 5 0 36 -12 69 -27z m1943 -78 c5 -22 15 -46 23 -55 8 -8
16 -31 19 -50 5 -33 16 -84 32 -155 3 -16 15 -39 25 -50 10 -11 29 -41 42 -65
79 -147 121 -204 220 -302 54 -53 94 -68 177 -68 49 0 58 3 92 37 21 20 38 43
38 50 0 14 77 62 127 79 18 7 33 8 33 4 0 -5 35 -8 77 -8 46 -1 79 -5 81 -11
5 -14 82 -14 82 -1 0 6 4 10 9 10 5 0 22 13 38 28 15 16 35 31 43 35 13 5 13
7 0 16 -11 8 -5 9 24 4 27 -4 40 -2 47 8 7 11 12 12 29 2 11 -7 31 -13 44 -13
14 0 28 -4 31 -10 3 -5 23 -17 43 -27 20 -9 54 -32 75 -50 21 -19 49 -39 62
-45 26 -12 35 -34 35 -95 0 -31 4 -43 14 -43 15 0 31 -34 22 -48 -2 -4 4 -26
14 -49 10 -22 21 -56 25 -74 4 -19 11 -36 16 -40 5 -3 12 -27 16 -54 3 -27 15
-58 25 -69 10 -11 17 -25 16 -31 -4 -18 72 -85 125 -111 77 -37 172 -32 227
11 21 16 109 33 205 40 85 6 181 27 198 44 6 6 25 11 42 11 27 0 34 -6 48 -38
9 -21 17 -44 17 -51 0 -7 5 -22 12 -34 7 -13 13 -67 14 -132 0 -60 7 -142 14
-180 10 -56 10 -89 1 -160 -7 -49 -16 -92 -20 -95 -5 -3 -18 -41 -30 -85 -26
-98 -60 -165 -83 -165 -9 0 -18 -4 -20 -8 -3 -9 -130 -52 -154 -52 -8 0 -17
-7 -20 -15 -4 -10 -20 -15 -44 -15 -31 0 -45 -8 -82 -45 -37 -37 -52 -45 -82
-45 -25 0 -36 4 -36 15 0 11 -12 15 -47 15 -35 0 -55 7 -82 27 -28 22 -49 29
-96 31 -104 5 -214 -4 -230 -19 -12 -12 -105 -12 -105 1 0 14 -43 12 -59 -3
-10 -9 -15 -9 -18 -1 -3 8 -17 5 -43 -10 -30 -16 -40 -27 -40 -47 0 -38 -73
-71 -137 -62 -58 7 -83 19 -83 38 0 18 -16 20 -23 3 -4 -9 -6 -8 -6 2 -1 8
-17 29 -36 45 -19 17 -35 38 -35 48 0 10 -7 20 -15 23 -8 4 -15 12 -15 20 0 8
7 14 15 14 10 0 15 10 15 28 0 16 9 35 21 46 l21 18 -21 14 c-12 8 -21 24 -21
35 0 10 -7 19 -15 19 -9 0 -18 7 -22 16 -3 8 -24 24 -47 34 -22 11 -60 38 -84
60 -23 22 -49 40 -58 40 -9 0 -28 13 -42 28 -15 16 -51 37 -79 46 -29 10 -53
22 -53 27 0 5 -11 9 -24 9 -13 0 -29 7 -36 15 -7 9 -22 12 -39 9 -31 -6 -128
37 -137 60 -3 7 -23 22 -44 32 -35 17 -42 26 -39 50 1 12 -62 44 -87 44 -13 0
-27 7 -30 15 -4 8 -14 15 -24 15 -10 0 -20 6 -23 14 -3 8 -21 19 -40 25 -24 8
-37 20 -41 36 -4 14 -12 24 -18 22 -7 -1 -14 9 -17 23 l-4 25 -7 -25 c-16 -59
-22 199 -16 775 3 336 5 612 6 613 0 2 5 2 12 0 7 -3 16 -22 20 -43z m-2882
-145 c0 -6 -7 -13 -15 -16 -8 -4 -15 -10 -15 -15 0 -14 26 -10 40 6 7 8 21 15
31 15 11 0 19 -7 19 -15 0 -17 3 -16 -70 -20 -30 -1 -56 -7 -58 -14 -2 -6 -14
-8 -28 -5 -16 4 -26 1 -30 -9 -8 -21 13 -57 34 -57 12 0 13 3 5 8 -7 4 -9 12
-5 18 7 12 53 38 55 32 24 -46 40 -54 45 -21 3 22 45 43 59 29 4 -3 -3 -6 -15
-6 -17 0 -22 -6 -22 -26 0 -23 3 -25 24 -20 14 3 28 2 31 -4 3 -5 -1 -10 -10
-10 -12 0 -15 -5 -11 -16 3 -9 6 -20 6 -25 0 -5 9 -9 21 -9 11 0 18 3 15 8 -7
12 22 45 34 37 8 -5 5 -14 -9 -29 -12 -12 -19 -25 -15 -28 3 -3 0 -9 -7 -14
-8 -4 -10 -3 -5 4 9 16 3 15 -41 -3 -25 -11 -40 -12 -47 -5 -17 17 -27 11 -16
-9 5 -11 18 -20 28 -20 9 -1 33 -3 53 -7 30 -5 39 -2 52 17 11 15 13 27 7 40
-8 14 -6 19 9 24 11 3 25 13 33 22 7 9 8 14 3 11 -6 -4 -17 -3 -25 2 -12 7
-11 10 5 16 11 4 23 12 26 17 4 5 9 5 13 -2 4 -6 2 -11 -5 -11 -9 0 -9 -3 1
-15 6 -8 9 -23 5 -36 -6 -18 -4 -20 14 -14 12 4 21 2 21 -4 0 -6 -12 -13 -27
-17 -49 -10 -55 -14 -51 -31 2 -11 12 -18 25 -18 13 0 23 -4 23 -10 0 -5 -6
-10 -12 -10 -17 0 -31 -22 -23 -35 4 -7 13 -6 26 1 15 7 24 7 35 -2 11 -9 14
-8 14 5 0 9 -5 16 -12 16 -6 0 -1 11 12 25 28 30 45 19 31 -18 -14 -37 4 -35
37 3 15 17 30 30 35 30 5 0 20 9 34 20 29 23 63 26 63 7 0 -8 -17 -25 -37 -38
-40 -26 -54 -49 -29 -49 9 0 16 5 16 11 0 7 10 9 24 5 17 -4 28 -1 34 10 5 9
15 14 21 10 6 -4 9 -12 6 -17 -4 -5 16 -7 47 -6 49 3 53 5 56 30 5 38 22 33
22 -6 0 -25 -7 -39 -30 -55 -42 -31 -70 -26 -37 7 10 10 9 11 -5 6 -10 -4 -18
-11 -18 -15 0 -5 -3 -16 -7 -26 -5 -13 -3 -15 8 -9 12 7 12 6 0 -9 -14 -17
-12 -17 35 -11 45 6 48 5 30 -9 -26 -21 -86 -21 -86 -1 0 8 -4 15 -10 15 -5 0
-10 -4 -10 -10 0 -5 -7 -10 -15 -10 -8 0 -15 5 -15 11 0 6 -8 8 -19 4 -13 -4
-23 0 -31 12 -8 13 -13 14 -16 6 -3 -7 -13 -13 -21 -13 -14 0 -14 -3 2 -20 10
-11 24 -20 32 -20 7 0 13 -4 13 -10 0 -5 -4 -10 -10 -10 -5 0 -7 -7 -4 -15 4
-8 17 -15 30 -15 30 0 31 -16 2 -24 -24 -6 -53 19 -42 35 3 5 0 9 -5 9 -6 0
-10 5 -9 12 2 6 -5 14 -14 16 -13 2 -18 -3 -18 -17 0 -22 -14 -28 -25 -11 -5
8 -11 7 -21 -1 -19 -15 1 -42 26 -34 9 3 23 -1 29 -9 14 -16 3 -44 -28 -75
-10 -10 -29 -40 -42 -67 -13 -27 -28 -52 -33 -55 -5 -4 -6 -19 -4 -34 5 -25 3
-27 -23 -23 -16 3 -29 1 -29 -4 0 -4 -6 -8 -12 -8 -7 0 2 13 20 28 18 15 32
36 32 49 0 12 5 35 12 50 12 28 74 112 93 125 7 5 6 8 -1 8 -5 0 -20 -9 -31
-20 -12 -11 -23 -15 -25 -9 -2 6 -24 13 -48 16 -41 5 -43 4 -26 -9 12 -9 15
-17 9 -21 -14 -9 -75 12 -68 23 3 4 -6 10 -20 12 -31 6 -32 -6 -2 -27 19 -13
20 -17 7 -25 -11 -7 -16 -5 -18 4 -2 8 -10 17 -19 20 -13 5 -14 1 -10 -22 3
-16 1 -34 -4 -39 -6 -6 -9 -21 -7 -34 l5 -24 10 24 c8 20 11 21 16 8 4 -11 18
-17 35 -17 34 0 43 -7 35 -26 -3 -9 -13 -12 -30 -8 -16 4 -28 2 -34 -7 -6 -10
-9 -10 -9 -2 0 7 -7 10 -15 7 -8 -4 -15 -1 -15 6 0 7 -8 9 -22 5 -20 -7 -21
-5 -16 41 7 58 2 74 -20 74 -15 1 -14 3 2 15 20 15 20 15 -1 15 -27 0 -80 27
-95 49 -17 24 -61 24 -76 1 -9 -15 -5 -23 25 -49 33 -29 59 -37 106 -33 21 2
22 -16 2 -42 -15 -19 -16 -19 -43 7 -34 32 -67 37 -59 8 3 -14 1 -18 -9 -14
-16 6 -18 19 -4 28 6 3 10 14 9 23 0 11 -3 12 -6 5 -8 -21 -51 -15 -58 7 -4
11 -11 18 -16 15 -5 -4 -14 6 -19 20 -14 36 -13 38 8 33 10 -3 27 1 37 8 16
12 17 14 2 20 -12 4 -17 18 -17 47 0 22 -3 37 -7 33 -4 -4 -8 -17 -8 -29 0
-17 -6 -22 -27 -22 -16 -1 -28 3 -28 7 0 4 4 8 10 8 5 0 12 11 16 25 3 14 12
25 19 25 7 0 15 6 18 13 5 14 -23 15 -59 3 -16 -5 -20 -12 -17 -26 4 -13 0
-20 -9 -20 -19 0 -11 69 8 77 8 3 14 18 14 34 0 31 -1 31 49 2 2 -2 -2 -9 -9
-18 -7 -8 -9 -15 -4 -15 5 0 18 13 29 30 11 16 32 35 47 41 16 6 28 17 28 23
0 6 4 5 9 -3 8 -12 12 -13 25 -1 19 15 21 13 30 -17 6 -17 3 -23 -8 -23 -23 0
-20 -17 4 -23 11 -3 20 -1 20 4 0 5 6 8 13 7 7 -2 13 9 15 25 2 19 -1 27 -12
27 -8 0 -25 10 -36 22 -17 19 -24 21 -40 10 -11 -7 -26 -12 -34 -12 -8 0 -19
-6 -23 -12 -4 -7 -25 -14 -46 -14 l-37 -1 6 36 c4 20 15 56 24 81 14 35 20 41
25 28 4 -10 14 -18 22 -18 9 0 13 -6 10 -14 -5 -13 10 -36 24 -36 3 0 6 13 5
30 -1 22 -7 30 -26 35 -41 11 -56 49 -17 43 12 -2 21 -9 19 -16 -2 -10 2 -10
19 -2 11 7 23 9 26 6 3 -3 15 0 27 6 11 7 24 12 28 13 3 0 10 3 14 8 11 11 44
9 44 -3z m-980 -390 c17 -9 19 -23 18 -133 0 -126 4 -163 22 -181 5 -5 10 -30
10 -56 1 -25 7 -56 15 -70 17 -30 19 -69 4 -107 -6 -15 -12 -46 -14 -68 -6
-88 -44 -195 -69 -195 -9 0 -16 -5 -16 -11 0 -6 8 -8 19 -4 17 5 18 1 14 -62
-2 -37 -8 -88 -13 -113 -5 -25 -14 -108 -21 -184 -12 -118 -16 -140 -31 -144
-10 -2 -18 -13 -18 -24 0 -18 -1 -18 -16 -4 -17 17 -59 22 -68 7 -7 -10 40
-24 53 -16 5 2 14 -2 21 -10 7 -8 21 -15 31 -15 12 0 16 -5 13 -15 -4 -8 -2
-15 3 -15 5 0 18 -6 28 -14 18 -13 17 -15 -14 -65 -21 -32 -40 -51 -52 -51
-10 0 -19 4 -19 9 0 6 -12 6 -30 0 -22 -8 -30 -17 -30 -35 0 -17 -4 -22 -15
-18 -8 4 -15 12 -15 20 0 8 -10 14 -26 14 -14 0 -23 -4 -19 -10 3 -5 3 -15 -1
-21 -9 -16 -24 9 -24 41 1 14 9 49 19 78 15 43 16 60 8 83 -9 22 -8 36 6 64
23 48 21 68 -7 93 -38 32 -42 82 -17 192 12 52 24 118 26 145 15 160 27 258
34 278 8 21 26 116 36 187 3 19 9 59 15 89 5 30 11 85 14 122 5 76 22 146 39
164 7 7 22 24 34 39 26 29 27 30 53 16z m2150 -1065 c0 5 5 4 12 -3 7 -7 26
-12 43 -12 29 -1 29 -1 -13 -21 -35 -16 -46 -18 -58 -8 -8 6 -17 9 -20 7 -3
-3 7 -15 22 -27 25 -19 28 -20 39 -5 7 11 14 13 18 7 4 -6 0 -14 -9 -17 -12
-5 -15 -14 -11 -36 4 -16 2 -32 -4 -36 -6 -3 -8 -17 -5 -30 7 -28 -11 -33 -22
-6 -4 9 -13 17 -21 17 -8 0 -18 14 -23 32 -6 24 -14 32 -35 35 -32 4 -39 20
-18 42 9 9 14 20 10 25 -3 5 -1 12 5 16 5 3 10 -3 10 -14 0 -11 5 -23 10 -26
6 -4 10 5 10 19 0 17 6 26 15 26 9 0 18 7 22 16 5 13 7 13 14 2 5 -7 9 -9 9
-3z m792 -850 c32 -22 39 -23 51 -10 17 16 28 10 20 -11 -3 -8 2 -21 12 -28
16 -12 30 -76 16 -74 -41 5 -54 -15 -24 -38 13 -9 22 -9 30 -2 15 12 17 0 5
-20 -7 -10 -20 -7 -61 12 -29 13 -58 32 -66 42 -11 16 -15 17 -31 4 -18 -14
-18 -14 -2 12 13 20 14 28 5 31 -7 3 -1 9 13 15 20 7 26 6 31 -6 8 -23 19 0
12 26 -4 18 -9 20 -24 11 -11 -5 -24 -7 -29 -4 -6 3 -10 2 -10 -4 0 -5 -12 -8
-27 -7 -16 2 -28 9 -28 17 0 8 8 13 18 11 15 -3 22 13 18 41 -2 15 36 6 71
-18z"/>
<path d="M7033 2235 c-17 -19 -16 -25 3 -25 14 0 16 -7 11 -45 -6 -37 -4 -45
9 -45 12 0 15 7 12 24 -8 40 6 52 36 32 15 -9 30 -15 34 -12 9 5 67 -13 90
-27 8 -5 12 -3 12 7 0 22 16 20 32 -3 10 -14 19 -16 36 -10 12 5 22 12 22 17
0 5 11 15 25 22 34 18 22 30 -22 20 -20 -5 -42 -6 -47 -2 -6 3 -18 7 -26 7 -9
0 -15 9 -14 22 1 21 -3 23 -65 21 -36 -1 -82 1 -101 5 -25 5 -39 3 -47 -8z"/>
<path d="M4270 8455 c-10 -11 -9 -18 4 -30 9 -9 16 -23 16 -31 0 -17 5 -17 31
-4 15 9 19 7 19 -7 0 -10 3 -28 6 -39 4 -17 0 -22 -20 -26 -21 -4 -24 -2 -16
12 9 17 4 30 -12 30 -4 0 -8 -6 -8 -14 0 -13 -22 -25 -56 -30 -21 -3 -29 -16
-10 -16 11 0 16 -5 13 -13 -3 -8 3 -14 16 -14 30 -3 81 -25 90 -40 13 -21 39
-16 32 6 -3 10 0 30 6 45 11 23 8 34 -21 88 -28 55 -60 98 -73 98 -3 0 -10 -7
-17 -15z"/>
<path d="M3575 8375 c-30 -62 -28 -85 8 -85 30 0 44 -16 49 -55 3 -27 7 -30
38 -30 19 -1 43 -5 53 -9 28 -13 46 10 22 27 -15 12 -17 22 -12 60 4 31 2 48
-6 56 -15 11 -58 3 -69 -13 -5 -7 -8 -4 -8 8 0 12 -5 16 -15 13 -8 -4 -17 -2
-20 3 -4 6 3 10 14 10 27 0 28 31 3 53 -10 10 -21 17 -24 17 -3 0 -18 -25 -33
-55z"/>
<path d="M2840 8385 c-7 -8 -23 -15 -36 -15 -34 0 -30 -27 5 -35 27 -6 29 -8
20 -38 -5 -18 -9 -33 -9 -34 0 -1 7 -8 15 -17 25 -25 157 -21 187 6 l23 20
-30 -6 c-16 -3 -35 -3 -41 2 -13 9 -29 66 -16 58 5 -3 7 6 4 19 -5 28 -29 34
-38 10 -4 -8 -16 -15 -29 -15 -17 0 -22 4 -18 18 7 27 -21 47 -37 27z"/>
<path d="M6421 7500 c-14 -6 -54 -35 -90 -64 -56 -45 -70 -63 -90 -116 -13
-35 -27 -77 -32 -94 -4 -17 -17 -65 -28 -106 -21 -77 -20 -180 2 -180 6 0 7
-24 3 -65 -4 -35 -3 -72 2 -82 5 -10 17 -32 26 -50 19 -36 20 -47 6 -38 -6 4
-22 0 -35 -9 -26 -17 -28 -44 -8 -95 l10 -25 6 30 c9 44 28 65 55 58 26 -7 28
-21 7 -60 -17 -33 -20 -89 -5 -79 6 3 10 -1 10 -9 0 -9 4 -16 9 -16 5 0 17 -3
26 -6 14 -6 15 3 10 82 -6 83 -4 96 27 188 29 88 37 102 67 120 23 13 36 16
38 9 9 -26 177 31 190 64 3 7 10 10 15 7 6 -4 13 -2 17 3 3 6 36 8 81 4 l74
-6 -39 -32 c-22 -18 -60 -42 -84 -54 -38 -18 -42 -22 -28 -31 12 -6 40 -4 90
8 73 18 80 22 158 112 23 28 49 25 65 -6 16 -33 18 -34 49 -22 26 10 27 12 11
29 -14 15 -14 22 -4 43 8 13 19 23 26 20 7 -2 12 5 12 18 0 13 8 24 20 27 10
3 22 13 25 23 3 10 12 21 20 24 11 4 12 0 5 -20 -14 -37 -12 -44 11 -44 14 0
19 -5 16 -15 -4 -8 -1 -17 4 -21 7 -4 8 -23 5 -48 -4 -22 -2 -56 3 -73 6 -22
6 -35 -1 -39 -16 -10 -6 -57 36 -167 l11 -28 13 28 13 28 -5 -32 c-5 -32 2
-42 18 -25 4 4 12 7 18 7 14 0 36 70 31 98 -3 14 0 28 6 31 16 10 14 46 -3 46
-7 0 -16 10 -19 22 -7 24 3 41 10 21 8 -22 23 -14 23 13 0 19 -7 28 -31 36
-27 9 -29 14 -24 39 9 42 -4 109 -21 109 -17 0 -19 27 -2 32 8 3 1 17 -20 38
-18 18 -29 36 -24 39 14 9 35 92 25 102 -4 4 -26 9 -48 11 l-40 4 28 12 c34
14 27 31 -12 30 -35 -1 -54 10 -47 28 3 8 -1 14 -8 14 -8 0 -16 6 -19 13 -4
10 -7 10 -18 0 -9 -10 -10 -13 -1 -13 7 0 12 -7 12 -16 0 -11 -6 -14 -21 -9
-15 5 -19 4 -15 -4 4 -6 20 -11 37 -11 16 0 29 -5 29 -12 0 -6 8 -20 17 -30
16 -18 15 -21 -29 -61 -42 -38 -49 -41 -77 -33 -31 9 -43 26 -18 26 8 1 7 4
-3 13 -19 14 -20 35 -3 45 8 5 -16 18 -65 35 -57 20 -69 26 -46 27 16 0 39 7
50 15 18 13 17 14 -18 15 -41 0 -49 12 -20 30 16 11 16 11 0 6 -10 -3 -18 -1
-18 4 0 6 5 10 11 10 5 0 8 4 4 9 -3 6 2 14 12 19 22 13 -54 20 -287 27 -109
3 -184 1 -199 -5z"/>
<path d="M0 6041 l0 -1078 90 -9 90 -10 50 46 c58 53 70 80 70 163 0 48 -7 79
-32 135 -17 39 -37 72 -44 72 -13 0 -20 38 -30 160 -6 80 -20 122 -53 163 -11
13 -16 15 -22 5 -6 -9 -12 -3 -20 19 -6 18 -15 30 -20 27 -5 -3 -6 2 -3 10 4
10 1 16 -8 16 -8 0 -22 16 -31 36 -15 31 -16 37 -2 50 8 9 15 25 16 37 1 40 7
55 31 89 14 18 30 47 37 64 7 17 32 50 57 73 24 22 44 45 44 50 0 6 18 21 40
33 22 13 40 27 40 32 0 4 17 29 38 55 39 46 47 66 56 132 9 63 19 214 17 237
-1 12 5 36 13 54 18 35 21 98 6 98 -5 0 -10 6 -10 13 0 7 -25 40 -55 72 -30
32 -55 62 -55 66 0 5 -9 9 -20 9 -11 0 -20 4 -20 8 0 5 -18 21 -41 38 -22 16
-54 40 -70 53 -45 35 -100 61 -131 61 l-28 0 0 -1079z"/>
<path d="M2780 6835 c0 -14 5 -25 12 -25 9 0 9 -3 0 -12 -9 -9 -12 -130 -12
-484 l0 -472 36 -27 c26 -20 34 -33 31 -47 -3 -11 0 -21 9 -25 8 -3 14 -16 14
-29 0 -27 -40 -49 -72 -41 -15 4 -18 -2 -18 -42 l0 -47 91 -2 c50 -1 95 0 100
4 5 3 5 14 -2 25 -8 16 -7 25 5 38 26 28 17 117 -10 109 -12 -3 -54 24 -54 35
0 15 -34 82 -46 92 -7 6 -14 19 -16 30 -5 33 27 28 67 -10 21 -19 39 -35 40
-35 2 0 -8 48 -20 100 -4 14 -15 37 -25 50 l-19 25 -34 -39 c-32 -36 -35 -37
-41 -18 -7 21 -1 61 14 97 14 36 30 102 30 128 0 32 24 60 75 86 22 12 35 21
30 21 -6 0 -3 5 5 11 13 9 13 9 0 7 -31 -6 -24 17 9 33 38 18 60 57 39 70 -7
5 -11 22 -10 39 2 17 -4 42 -12 55 -14 21 -14 31 -4 69 l12 46 -72 69 c-40 38
-72 73 -72 78 0 6 -11 15 -25 21 -14 7 -28 19 -31 27 -9 24 -24 18 -24 -10z"/>
<path d="M6450 6837 c-46 -23 -37 -44 25 -58 l57 -13 -47 -11 c-26 -7 -54 -19
-62 -28 -17 -16 -10 -53 7 -42 9 6 54 -5 105 -26 18 -7 18 -8 -4 -8 -42 -1 -9
-21 45 -27 39 -4 53 -1 67 13 9 10 33 34 52 55 58 60 46 77 -80 122 -94 33
-135 39 -165 23z"/>
<path d="M3053 6663 c-27 -5 -32 -47 -8 -57 8 -3 15 -13 15 -23 0 -12 13 -22
40 -31 47 -14 73 -16 66 -3 -8 12 28 21 44 11 9 -5 6 -10 -11 -15 -22 -7 -22
-8 -4 -22 24 -17 70 -8 99 18 20 19 20 19 -8 19 -15 0 -40 8 -54 19 -15 10
-45 24 -67 31 -22 8 -50 24 -62 37 -12 13 -23 22 -25 22 -2 -1 -13 -4 -25 -6z"/>
<path d="M2142 6620 c-7 -11 -18 -19 -24 -17 -7 1 -20 -13 -30 -32 -9 -19 -22
-39 -27 -44 -6 -6 -11 -19 -11 -29 0 -10 -4 -18 -10 -18 -5 0 -10 -7 -10 -15
0 -8 5 -15 10 -15 6 0 16 -11 22 -25 10 -22 17 -25 65 -25 38 0 58 5 72 19 10
10 25 21 32 23 10 3 13 22 11 74 -2 57 -7 72 -25 86 -12 10 -27 22 -34 28 -18
15 -27 12 -41 -10z"/>
<path d="M4048 6593 c-20 -5 -107 -115 -111 -141 -4 -23 -27 -65 -41 -74 -8
-6 -8 -8 0 -8 7 0 14 -9 17 -21 4 -16 12 -20 34 -17 27 3 28 5 25 51 -3 44 -2
47 21 47 14 0 27 -7 31 -15 3 -8 15 -15 27 -15 13 0 30 -7 39 -15 14 -13 19
-13 36 0 14 11 15 14 4 15 -15 0 -40 42 -40 67 0 7 -5 13 -11 13 -8 0 -10 17
-6 55 6 57 3 64 -25 58z"/>
<path d="M780 6414 c-14 -8 -35 -14 -47 -14 -16 0 -23 -8 -28 -30 -4 -16 -13
-33 -20 -37 -25 -14 -28 -57 -6 -77 12 -11 21 -24 21 -31 0 -23 80 -65 123
-65 46 0 136 38 137 58 0 6 4 12 9 12 15 0 19 49 4 62 -8 6 -12 17 -9 25 3 7
1 13 -4 13 -4 0 -11 14 -15 30 -5 25 -11 30 -26 25 -11 -4 -19 -2 -19 4 0 6
-11 11 -25 11 -14 0 -36 6 -48 14 -18 11 -26 11 -47 0z"/>
<path d="M3145 6414 c5 -10 9 -31 9 -46 1 -16 4 -28 9 -28 4 0 7 -11 7 -25 0
-54 72 -90 120 -61 35 20 44 20 36 1 -3 -8 -1 -15 4 -15 5 0 16 -7 24 -16 14
-14 15 -12 10 14 -3 16 -1 38 4 48 6 11 8 40 5 67 -5 40 -9 47 -28 47 -12 0
-25 3 -29 7 -4 4 -28 7 -54 8 -26 0 -65 4 -86 9 -36 8 -39 7 -31 -10z"/>
<path d="M9337 6226 c-4 -9 -18 -16 -32 -16 -30 0 -31 -4 -5 -30 11 -11 20
-28 20 -39 0 -22 25 -45 40 -36 5 3 10 -1 10 -9 0 -14 3 -14 20 -4 19 12 25
11 93 -17 14 -6 17 -2 17 23 0 17 5 32 12 34 6 2 9 12 5 21 -4 12 -14 15 -34
11 -23 -4 -31 0 -44 24 -9 16 -27 31 -40 34 -13 3 -31 9 -40 12 -10 5 -19 1
-22 -8z"/>
<path d="M4017 6198 c-18 -43 -12 -58 24 -58 27 0 34 -8 30 -38 -2 -11 2 -11
20 -1 18 9 24 9 34 -4 9 -12 21 -15 48 -10 31 5 35 9 33 31 -2 14 -10 31 -20
37 -9 7 -16 18 -16 24 0 8 -8 10 -19 6 -13 -4 -23 0 -29 11 -6 11 -17 15 -30
12 -13 -4 -23 0 -26 8 -9 25 -36 15 -49 -18z"/>
<path d="M11571 6040 c-1 -32 89 -120 124 -120 26 0 34 15 13 23 -7 3 2 6 20
6 25 1 32 5 32 21 0 12 -15 35 -32 53 -30 29 -38 32 -80 29 -33 -3 -48 -9 -51
-20 -3 -13 -6 -11 -15 8 l-11 25 0 -25z"/>
<path d="M7185 5580 c-23 -25 -23 -72 1 -198 10 -52 14 -105 10 -134 -4 -31
-3 -48 4 -48 5 0 10 6 10 14 0 7 6 19 14 25 32 27 27 223 -8 326 l-13 35 -18
-20z"/>
<path d="M8813 5576 c-34 -16 -35 -52 -2 -87 36 -39 37 -66 3 -79 -33 -13 -23
-28 15 -22 30 4 80 -23 81 -44 0 -10 64 -24 107 -24 17 0 45 63 37 84 -3 9 -2
16 4 16 6 0 13 -6 15 -12 3 -8 6 -7 6 4 1 26 -16 65 -39 88 -21 21 -50 27 -50
10 0 -16 -26 -11 -43 8 -10 10 -17 26 -17 35 0 13 -8 17 -27 15 -16 -1 -37 3
-48 8 -13 7 -27 7 -42 0z"/>
<path d="M8488 5203 c-9 -10 -13 -23 -11 -30 5 -15 -14 -26 -22 -13 -10 16
-28 12 -22 -5 4 -8 2 -17 -4 -20 -5 -4 -12 1 -15 9 -11 28 -24 17 -24 -20 0
-21 4 -33 10 -29 6 3 10 3 10 -2 0 -4 -13 -14 -30 -21 -35 -16 -37 -25 -12
-57 13 -17 23 -20 34 -14 11 6 19 5 24 -3 5 -8 10 -6 15 8 6 16 8 15 8 -8 1
-32 21 -39 21 -8 0 29 18 25 32 -7 7 -16 13 -29 14 -31 1 -2 12 2 24 8 18 10
24 8 34 -6 9 -12 20 -15 36 -11 13 3 30 1 37 -5 9 -7 13 -7 13 0 0 6 -5 12
-10 14 -6 2 -8 21 -4 50 6 42 9 46 25 38 28 -16 34 -12 14 10 -10 11 -27 22
-38 26 -25 8 -41 23 -50 46 -5 15 -2 16 18 8 15 -6 27 -6 30 0 7 12 -33 52
-45 45 -12 -8 -80 21 -80 34 0 16 -15 13 -32 -6z"/>
<path d="M8957 5177 c-12 -32 -8 -66 10 -76 23 -12 13 -22 -14 -15 -12 3 -24
15 -26 26 -5 16 -12 19 -32 16 -19 -4 -25 -2 -21 8 3 7 1 16 -5 19 -5 4 -13
-4 -17 -16 -6 -14 -11 -18 -16 -11 -4 6 -13 9 -21 5 -9 -3 -22 0 -30 7 -9 7
-19 10 -23 6 -4 -4 0 -12 9 -16 11 -6 15 -18 11 -35 -2 -15 0 -25 7 -25 6 0
11 -16 11 -37 0 -29 -3 -34 -12 -25 -18 18 -25 15 -30 -13 -5 -26 6 -32 31
-16 17 11 38 4 45 -14 4 -11 0 -12 -18 -6 -16 7 -29 4 -47 -10 l-24 -20 25 2
c50 3 58 -1 63 -30 4 -21 13 -30 32 -33 19 -4 25 -2 21 8 -3 8 4 19 15 24 26
14 62 3 55 -17 -5 -11 1 -14 22 -11 16 2 27 9 27 18 0 10 -8 14 -22 12 -25 -4
-39 13 -18 22 8 3 15 12 15 20 0 10 6 13 15 10 8 -4 15 -12 15 -19 0 -10 10
-12 35 -8 33 5 35 4 33 -18 -3 -20 1 -23 20 -21 12 2 22 -2 22 -9 0 -7 9 -5
26 6 15 9 29 13 33 9 7 -10 66 -44 75 -44 3 0 6 9 6 19 0 15 5 19 22 16 12 -3
25 0 29 6 10 16 29 2 29 -21 0 -12 5 -17 13 -14 8 3 20 -2 27 -10 7 -9 17 -13
23 -9 15 9 80 10 100 1 9 -5 17 -14 17 -21 0 -7 7 -22 16 -33 10 -13 14 -14
11 -4 -3 9 1 29 9 45 8 17 12 23 10 15 -4 -18 21 -70 34 -70 5 0 11 -10 13
-22 2 -13 5 4 6 36 1 44 -4 64 -16 79 -17 18 -17 19 0 32 22 16 22 25 0 25
-10 0 -26 7 -36 14 -10 8 -27 12 -37 9 -12 -3 -20 0 -20 7 0 7 -8 9 -19 5 -13
-4 -27 1 -41 15 -22 22 -40 19 -40 -6 0 -8 -5 -14 -11 -14 -5 0 -8 4 -4 9 3 5
-5 17 -17 25 -19 14 -24 14 -38 1 -21 -19 -46 -11 -53 16 -3 11 -11 18 -18 17
-7 -2 -13 2 -14 9 0 6 -13 21 -29 34 -24 19 -31 20 -49 10 -16 -10 -21 -10
-28 1 -5 7 -9 19 -9 26 0 16 -32 15 -55 -2 -18 -13 -18 -15 -2 -30 10 -10 13
-23 9 -34 -5 -14 -8 -13 -16 10 -8 23 -28 36 -53 36 -13 0 -21 27 -11 39 8 9
4 15 -15 22 -15 6 -27 19 -29 33 -3 20 -4 21 -11 5z"/>
<path d="M10720 4895 c-7 -8 -16 -15 -21 -15 -4 0 -20 -12 -35 -27 -20 -20
-28 -40 -33 -82 -8 -69 0 -86 61 -136 27 -22 57 -47 66 -56 54 -46 203 -69
240 -36 10 9 23 17 29 17 5 0 18 18 29 40 10 22 22 40 27 40 13 0 7 45 -10 77
-38 69 -85 107 -173 142 -47 18 -89 37 -94 42 -16 14 -72 10 -86 -6z"/>
<path d="M7942 4643 c2 -11 14 -19 31 -21 15 -2 27 -9 27 -18 0 -16 -26 -19
-35 -4 -10 16 -25 12 -25 -6 0 -9 8 -23 18 -31 16 -12 15 -13 -8 -11 -20 2
-26 9 -28 36 -3 32 -5 33 -35 26 -18 -3 -36 -12 -40 -18 -5 -6 -6 0 -3 15 4
16 1 26 -7 26 -6 1 -27 4 -45 8 -25 6 -32 5 -30 -6 2 -8 -4 -13 -14 -13 -10 1
-16 -2 -13 -6 3 -5 1 -11 -4 -14 -5 -3 -12 6 -16 22 l-7 27 -13 -35 c-10 -28
-10 -40 1 -61 7 -15 13 -47 12 -71 0 -27 8 -60 21 -86 23 -46 27 -93 10 -140
-10 -29 -8 -35 20 -69 17 -21 31 -43 31 -50 0 -20 22 -63 33 -63 5 0 25 -14
45 -31 24 -22 37 -27 42 -19 5 9 9 9 14 1 15 -23 24 -9 31 44 6 53 24 68 26
22 0 -12 3 -17 6 -10 3 8 13 3 28 -15 20 -22 24 -24 25 -9 0 9 5 17 11 17 7 0
9 -10 5 -25 -6 -22 -3 -25 18 -25 13 0 33 -3 43 -7 15 -6 16 -5 5 9 -11 13
-11 20 -1 36 10 17 10 25 -4 46 -21 31 -21 32 -1 40 9 3 12 2 9 -5 -8 -13 14
-41 27 -33 5 3 18 -6 29 -20 20 -25 20 -25 39 -6 22 22 70 116 70 137 0 7 -5
13 -11 13 -6 0 -9 7 -5 15 3 8 1 15 -4 15 -6 0 -10 -4 -10 -10 0 -5 -7 -10
-15 -10 -8 0 -25 -10 -37 -22 -14 -14 -23 -18 -26 -10 -2 7 -11 12 -20 12 -11
1 -6 7 13 17 16 9 35 22 43 29 7 8 17 14 22 14 9 0 7 47 -3 70 -4 8 -9 28 -11
44 -3 17 -12 34 -20 38 -9 5 -13 15 -9 25 5 12 2 15 -8 11 -10 -4 -15 3 -16
25 -3 36 -29 67 -56 67 -11 0 -27 8 -36 18 -9 9 -25 24 -36 32 -19 14 -19 14
-6 -3 13 -16 13 -20 0 -28 -12 -7 -12 -10 0 -18 7 -5 22 -6 33 -3 15 3 19 1
16 -9 -5 -16 -67 -23 -87 -10 -12 8 -12 13 2 35 23 34 21 56 -2 56 -11 0 -23
5 -26 10 -11 17 -37 11 -33 -7z"/>
<path d="M8563 4576 c4 -10 -2 -25 -14 -37 l-21 -21 -22 21 c-27 26 -43 26
-69 4 -18 -17 -19 -17 -33 1 -7 10 -15 23 -17 29 -2 6 -15 4 -35 -6 -20 -9
-32 -11 -32 -5 0 6 -2 9 -5 6 -3 -3 0 -18 7 -32 9 -20 17 -26 33 -22 18 5 23
-3 43 -72 24 -85 28 -117 12 -107 -5 3 -10 -1 -10 -10 0 -12 5 -15 16 -11 14
5 15 1 10 -31 l-7 -38 16 29 c8 15 15 36 15 45 0 9 7 25 15 35 11 15 12 23 3
33 -6 7 -7 17 -3 21 4 4 10 1 12 -5 3 -7 13 -13 22 -13 16 0 17 -7 13 -50 -5
-51 10 -70 23 -29 6 19 8 20 23 5 14 -14 13 -19 -17 -61 -18 -25 -33 -58 -33
-75 -1 -35 -2 -35 -21 -15 -13 12 -15 10 -21 -15 -3 -17 -1 -40 4 -52 8 -21 9
-21 10 -3 l1 20 9 -20 c8 -19 9 -19 9 3 1 13 7 30 14 37 34 39 39 49 40 80 2
59 17 26 17 -36 0 -38 4 -58 10 -54 6 3 10 1 10 -5 0 -6 -7 -13 -15 -16 -8 -4
-15 -13 -15 -21 0 -8 4 -12 9 -9 16 10 25 -26 45 -172 4 -36 16 -56 16 -29 0
23 27 21 40 -3 6 -11 17 -20 24 -20 7 0 21 -9 31 -20 26 -29 29 -18 6 21 -12
19 -21 37 -21 42 0 15 28 6 34 -10 17 -47 36 -68 63 -68 15 0 31 4 35 10 4 6
13 2 23 -10 15 -19 15 -19 9 10 -9 42 -12 45 -38 45 -13 0 -29 7 -36 15 -18
22 5 45 46 45 18 0 39 7 48 15 17 17 36 20 36 4 0 -5 4 -8 10 -4 5 3 7 12 3
20 -4 13 2 17 23 14 14 -2 22 26 12 38 -15 19 -2 29 17 13 26 -22 37 -49 27
-67 -7 -12 -3 -22 17 -38 27 -22 107 -52 116 -43 5 5 -22 65 -35 78 -25 25
-41 75 -36 108 4 20 3 33 -1 27 -4 -5 -18 -19 -30 -29 -23 -19 -23 -19 -23 5
0 13 8 34 18 47 16 20 20 21 44 10 15 -7 32 -25 37 -40 5 -14 18 -29 30 -33
11 -3 23 -16 27 -28 10 -34 23 -45 45 -40 19 5 19 6 -1 23 -24 21 -27 52 -5
44 9 -4 22 -18 31 -33 15 -26 15 -26 10 17 -3 28 0 42 8 42 8 0 13 -23 14 -67
3 -70 18 -98 48 -86 8 3 15 1 15 -3 5 -33 4 -66 -3 -70 -4 -3 -8 4 -8 15 0 11
-5 23 -11 26 -24 15 -19 -7 15 -68 20 -35 33 -67 29 -70 -3 -4 1 -7 9 -7 9 0
18 7 22 15 7 20 19 19 34 -5 10 -16 10 -26 -2 -53 -11 -28 -11 -39 0 -65 7
-18 17 -32 22 -32 13 0 29 21 34 45 5 19 5 19 13 1 5 -11 3 -26 -3 -37 -18
-28 -15 -46 8 -52 12 -3 20 -14 20 -25 0 -11 7 -23 16 -26 24 -9 28 -7 14 9
-10 12 -9 15 5 15 12 0 16 6 12 19 -3 15 1 21 16 23 15 2 25 14 33 43 l11 40
7 -37 c6 -34 26 -54 26 -27 0 5 5 7 11 3 8 -5 8 -1 0 14 -16 30 -13 37 8 18
10 -9 25 -14 34 -11 11 5 17 -2 22 -24 3 -16 13 -36 22 -43 14 -12 16 -8 10
32 -3 25 -9 56 -13 70 -7 23 -5 22 21 -8 15 -18 40 -39 56 -48 l29 -14 -12 26
c-9 20 -9 27 2 34 11 7 10 15 -4 50 -9 23 -28 58 -41 78 -14 20 -25 42 -25 48
0 17 -28 25 -34 11 -2 -7 -5 -4 -5 6 -1 20 -21 23 -39 5 -9 -9 -12 -7 -12 11
0 12 5 31 11 43 10 18 8 19 -11 13 -15 -5 -20 -4 -16 4 4 6 3 11 -3 11 -6 0
-8 7 -5 15 4 10 0 15 -11 15 -11 0 -15 5 -12 15 4 8 2 17 -2 20 -13 8 -20 -31
-14 -83 5 -46 4 -46 -14 -29 -25 22 -34 22 -61 -3 -17 -16 -22 -32 -22 -67 0
-67 -18 -41 -21 30 -1 31 -6 57 -11 57 -4 0 -8 -4 -8 -10 0 -21 -16 -9 -27 20
-6 17 -17 30 -23 30 -7 0 -10 -6 -7 -14 3 -8 -3 -22 -13 -31 -20 -18 -32 -9
-36 30 -4 31 -23 75 -33 75 -8 0 -19 30 -28 75 -3 19 -3 19 11 -1 8 -11 18
-32 21 -47 4 -14 13 -31 21 -38 8 -6 14 -17 14 -24 0 -7 6 -18 14 -24 12 -10
14 -1 12 61 -2 39 -8 74 -13 75 -6 2 -19 11 -29 19 -18 14 -18 15 4 9 33 -9
28 17 -9 44 -17 13 -36 24 -42 25 -7 1 -17 5 -24 9 -6 4 -18 4 -27 1 -9 -4
-16 -1 -16 6 0 10 -3 10 -14 1 -10 -8 -16 -9 -21 -1 -3 5 -15 10 -26 10 -10 0
-19 5 -19 11 0 7 -10 9 -24 7 -18 -4 -26 0 -30 15 -3 11 -3 24 0 29 9 14 32 9
38 -8 5 -14 9 -14 22 -3 19 16 13 71 -10 94 -20 21 -29 19 -23 -5 3 -11 2 -18
-3 -15 -10 6 -25 -13 -38 -50 -6 -18 -11 -23 -11 -12 -1 10 6 34 14 54 16 39
21 118 6 109 -5 -4 -11 0 -14 6 -3 10 -7 10 -20 0 -9 -8 -13 -20 -10 -28 3 -8
0 -20 -6 -28 -6 -7 -12 -26 -13 -42 -1 -16 -8 -40 -15 -54 -7 -14 -13 -40 -13
-59 0 -19 -3 -31 -7 -28 -9 9 18 207 29 207 19 0 6 18 -17 24 -14 4 -25 10
-25 15 0 4 -11 6 -25 3 -18 -3 -25 0 -25 11 0 22 -23 27 -37 8 -11 -14 -12
-13 -13 8 0 24 0 24 -19 5 -16 -17 -17 -22 -5 -46 18 -34 18 -39 -2 -31 -12 4
-15 -1 -13 -28 3 -42 -1 -138 -6 -124 -1 6 -13 42 -24 82 -12 40 -31 83 -42
95 l-20 23 7 -50 c6 -44 5 -48 -8 -34 -9 8 -19 29 -22 46 -4 18 -13 37 -21 43
-8 6 -17 25 -20 41 -5 21 -11 29 -21 25 -8 -3 -14 0 -13 7 1 6 1 17 0 23 -1
14 -41 26 -41 12 0 -5 -4 -7 -9 -4 -5 4 -15 -7 -22 -23 -11 -24 -16 -27 -31
-17 -24 15 -23 29 2 21 30 -10 25 19 -7 40 -24 16 -25 16 -20 1z"/>
<path d="M9425 4373 c-11 -3 -25 -10 -30 -18 -9 -11 -32 -15 -89 -16 -11 0
-22 5 -26 12 -9 13 -12 8 -30 -49 -15 -47 -10 -57 33 -67 21 -6 27 -4 27 8 0
9 -8 21 -17 26 -16 9 -16 10 -2 11 15 0 24 -11 28 -33 3 -20 56 -66 80 -69 18
-2 25 -8 23 -20 -2 -10 2 -18 8 -18 5 0 10 4 10 10 0 5 10 18 22 30 21 20 21
20 2 35 -16 12 -16 14 -3 15 14 0 16 7 11 38 -4 20 -6 54 -7 75 0 37 -2 39
-40 30z"/>
<path d="M10021 4158 c-1 -26 -5 -50 -11 -53 -9 -6 -14 10 -13 43 1 15 1 15
-31 2 -14 -5 -26 -16 -26 -24 0 -9 6 -13 14 -10 7 3 15 -3 18 -13 6 -22 -15
-76 -26 -66 -13 13 -26 -20 -26 -67 0 -46 13 -70 37 -70 9 0 13 14 13 40 0 41
16 56 22 20 4 -28 21 -27 30 2 5 21 6 21 8 3 2 -12 5 -6 10 15 5 24 8 28 9 12
0 -13 6 -20 11 -17 6 3 10 -2 10 -12 0 -16 11 -18 85 -21 56 -2 85 0 85 7 0 6
9 11 20 11 42 0 54 89 20 145 -34 55 -86 88 -147 93 -48 4 -54 2 -62 -19 -8
-19 -10 -20 -10 -5 -1 11 -6 16 -15 13 -8 -3 -17 -1 -20 6 -2 7 -5 -9 -5 -35z"/>
<path d="M9824 4139 c-3 -6 -14 -9 -24 -6 -17 4 -27 -5 -28 -27 -1 -14 -26
-26 -33 -15 -4 7 -9 5 -12 -5 -3 -8 5 -31 19 -51 28 -42 29 -48 9 -65 -14 -12
-14 -15 0 -30 11 -12 13 -20 6 -25 -19 -11 -12 -35 14 -45 14 -5 25 -15 25
-22 1 -17 67 -108 79 -108 18 0 19 42 2 59 -9 9 -24 26 -32 37 -8 11 -26 25
-40 31 -24 10 -27 17 -27 63 0 45 2 50 19 45 17 -6 18 -2 12 41 -6 43 -4 47
12 41 15 -6 16 -3 11 28 -4 20 -3 35 2 35 6 0 12 -18 14 -40 2 -22 0 -40 -4
-40 -5 0 -8 -4 -8 -10 0 -5 7 -10 16 -10 14 0 15 8 9 58 -4 31 -9 60 -12 65
-6 10 -21 9 -29 -4z"/>
<path d="M10755 4122 c-60 -20 -95 -42 -95 -59 0 -7 -4 -13 -10 -13 -5 0 -10
-7 -10 -15 0 -8 -7 -15 -16 -15 -11 0 -14 -6 -9 -20 4 -11 2 -20 -4 -20 -6 0
-13 -11 -17 -24 -7 -30 35 -112 71 -139 32 -23 208 -47 256 -34 41 11 249 3
275 -11 53 -27 74 -33 124 -36 77 -4 273 -36 285 -46 33 -27 290 -59 336 -41
36 13 35 64 -2 95 -14 11 -29 29 -32 39 -4 9 -15 17 -26 17 -11 0 -23 5 -26
10 -3 6 -14 10 -23 10 -10 0 -35 9 -56 19 -21 11 -51 23 -67 26 -16 4 -29 10
-29 15 0 4 -21 11 -47 14 -50 7 -235 61 -265 77 -10 5 -34 9 -53 9 -19 0 -35
5 -35 10 0 6 -17 10 -38 10 -21 0 -42 4 -47 8 -6 5 -39 17 -75 26 -36 10 -73
22 -82 27 -10 5 -22 9 -28 9 -5 0 -18 8 -28 18 -11 11 -38 22 -60 26 -23 3
-42 11 -42 16 0 15 -68 10 -125 -8z"/>
<path d="M9954 3797 c-3 -9 -14 -17 -23 -17 -21 0 -26 -53 -11 -109 9 -36 13
-39 50 -43 l40 -4 0 94 c0 77 -2 92 -13 83 -10 -8 -17 -7 -25 1 -8 8 -13 7
-18 -5z"/>
<path d="M4183 3141 c-5 -22 -44 -38 -62 -27 -5 4 -13 1 -16 -5 -4 -6 -17 -14
-29 -18 -18 -8 -16 -10 20 -20 23 -6 56 -8 74 -4 28 5 32 3 27 -9 -4 -11 1
-18 14 -21 15 -4 18 -11 14 -30 -4 -14 -2 -28 4 -31 17 -11 48 11 55 39 9 36
29 32 21 -4 -3 -17 -2 -32 4 -36 7 -3 11 3 11 15 0 12 4 19 9 16 5 -3 7 -15 4
-25 -7 -26 15 -36 36 -17 10 9 29 16 43 16 14 0 33 10 44 22 l19 21 -37 -6
c-21 -3 -38 -2 -38 4 0 5 17 9 38 10 49 1 85 12 90 27 6 18 -58 15 -80 -5 -15
-14 -24 -14 -58 -4 -45 13 -49 27 -19 60 26 28 18 56 -14 46 -12 -4 -37 -9
-54 -12 -32 -5 -47 -23 -19 -23 16 0 31 -34 21 -50 -4 -6 -17 -4 -36 6 -25 12
-28 18 -18 30 9 11 8 14 -5 14 -11 0 -16 7 -14 18 5 27 -42 30 -49 3z"/>
<path d="M3710 2751 c0 -6 -7 -11 -15 -11 -8 0 -15 -4 -15 -9 0 -12 -59 -11
-66 1 -4 5 -15 0 -26 -11 -10 -12 -16 -26 -12 -32 4 -6 1 -15 -6 -19 -22 -13
6 -69 31 -63 10 3 19 11 19 19 0 7 16 26 35 41 19 15 35 34 35 41 0 17 15 15
31 -4 12 -15 9 -21 -25 -50 -21 -18 -35 -37 -32 -42 7 -12 56 -3 56 10 0 5 6
16 14 23 20 21 15 109 -7 113 -9 2 -17 -1 -17 -7z"/>
<path d="M3198 2083 c-3 -13 -12 -23 -18 -23 -7 0 -10 7 -6 15 7 18 -11 19
-43 2 -22 -11 -31 -32 -13 -32 4 -1 18 -7 30 -14 13 -7 35 -10 48 -7 19 5 24
2 24 -11 0 -10 7 -26 14 -36 12 -15 15 -15 26 -2 13 15 70 21 70 7 0 -4 -5
-13 -12 -20 -9 -9 -7 -13 7 -18 25 -10 49 8 53 40 3 24 1 27 -17 21 -17 -5
-21 -2 -21 15 0 17 -4 20 -19 15 -14 -4 -23 0 -31 15 -7 14 -21 20 -45 20 -24
0 -35 5 -37 18 -3 14 -5 13 -10 -5z"/>
<path d="M2786 1685 c-3 -9 -6 -80 -7 -158 -1 -137 -14 -356 -17 -289 -2 36
-22 45 -22 10 0 -21 -4 -23 -50 -20 -37 3 -56 10 -72 28 -13 13 -30 24 -39 24
-10 0 -37 11 -60 25 -51 29 -100 31 -256 13 -73 -8 -103 -15 -103 -25 0 -8
-13 -13 -35 -13 -28 0 -43 -8 -69 -36 -41 -44 -56 -59 -92 -92 -27 -24 -27
-27 -9 -30 10 -3 45 -30 76 -62 l56 -57 116 -13 c65 -7 117 -17 117 -22 0 -4
34 -8 75 -8 49 0 87 -6 105 -15 17 -9 78 -22 138 -30 59 -8 116 -17 126 -21
16 -6 18 -4 13 18 -5 17 -2 30 8 38 13 10 15 9 15 -9 0 -23 22 -27 64 -11 21
8 28 6 40 -11 8 -12 25 -22 39 -23 15 0 23 -6 20 -13 -3 -7 -9 -10 -15 -7 -5
3 -16 -3 -24 -14 -11 -17 -23 -19 -78 -17 -62 2 -64 1 -68 -24 -4 -25 -4 -193
0 -633 l2 -188 420 0 c362 0 420 2 420 15 0 18 37 38 56 31 8 -3 14 -15 14
-26 0 -17 6 -20 38 -20 24 0 32 3 23 9 -11 7 -10 14 5 37 11 15 14 25 7 21 -6
-4 -14 -3 -18 3 -3 5 -17 7 -30 4 -12 -3 -26 -1 -30 5 -3 6 -11 9 -16 6 -13
-8 -11 19 2 32 7 7 6 12 -5 16 -10 4 -16 1 -16 -8 0 -8 -7 -15 -15 -15 -8 0
-35 -7 -60 -16 -45 -15 -46 -15 -65 8 -16 20 -21 21 -40 10 -15 -9 -26 -10
-40 -2 -23 12 -27 50 -6 50 8 0 17 7 20 16 9 22 8 24 -9 24 -8 0 -15 9 -15 20
0 25 -10 29 -80 33 -42 3 -56 8 -58 20 -2 9 -10 17 -18 17 -8 0 -12 4 -9 10 3
5 19 7 34 4 21 -4 32 -1 42 13 8 10 35 29 62 42 26 13 47 28 47 33 0 4 5 8 10
8 6 0 10 -6 10 -14 0 -8 9 -22 21 -30 12 -8 18 -19 14 -26 -5 -7 -1 -11 11 -9
41 5 54 -10 48 -56 -8 -51 4 -62 45 -40 41 21 54 20 41 -4 -15 -29 34 -44 81
-24 33 14 33 15 12 24 -23 8 -32 29 -13 29 6 0 10 5 10 10 0 6 -7 10 -14 10
-8 0 -27 11 -41 24 -31 29 -27 57 11 82 13 9 21 20 19 25 -3 4 3 14 15 21 11
7 20 16 20 20 0 9 -35 -9 -63 -31 -9 -8 -20 -12 -23 -8 -3 3 8 15 25 28 29 21
30 23 15 52 -11 19 -14 42 -10 66 14 79 13 86 -14 86 -25 0 -25 0 -22 84 l3
83 -58 -6 c-42 -5 -54 -4 -43 4 13 9 13 12 -3 24 -9 7 -27 12 -40 11 -12 -1
-30 -3 -40 -4 -16 -1 -16 -3 -2 -24 17 -26 12 -37 -17 -37 -10 0 -18 -4 -18
-10 0 -5 -16 -10 -35 -10 -24 0 -35 -5 -35 -15 0 -8 -7 -15 -16 -15 -8 0 -13
4 -9 10 5 7 -9 19 -53 46 -1 1 22 27 51 58 55 57 80 68 91 41 6 -17 42 -20 51
-5 4 6 10 8 15 5 12 -7 73 28 110 64 17 16 27 32 21 35 -5 3 -11 3 -13 -1 -2
-5 -15 -19 -30 -32 -23 -20 -40 -24 -103 -26 -57 -2 -75 0 -75 10 0 20 40 45
70 45 31 0 51 17 43 36 -7 19 -23 18 -23 -1 0 -8 -5 -15 -11 -15 -6 0 -8 9 -4
21 6 18 4 20 -15 14 -15 -5 -20 -4 -16 4 4 6 3 11 -2 11 -15 0 -24 -32 -12
-44 5 -5 10 -14 10 -20 0 -5 -3 -7 -6 -4 -3 3 -28 -3 -57 -13 -69 -25 -97 -25
-97 1 0 11 3 19 8 18 4 -1 22 6 40 15 18 10 38 17 45 15 6 -1 23 9 37 23 34
34 28 80 -12 85 -19 2 -29 -3 -33 -16 -9 -30 -58 -60 -85 -53 -15 4 -26 1 -32
-11 -5 -9 -25 -23 -44 -31 -22 -9 -34 -21 -34 -33 0 -47 -109 -81 -179 -57 -9
4 1 18 30 44 42 38 45 39 64 22 11 -10 33 -18 48 -19 28 -2 29 -1 22 36 -5 33
-3 39 22 54 20 12 33 14 46 7 22 -13 23 8 1 32 -20 22 -54 9 -54 -21 0 -22
-10 -26 -27 -9 -7 7 -12 2 -17 -17 -6 -22 -9 -25 -17 -13 -12 19 -12 62 1 54
6 -3 10 0 10 9 0 8 -6 17 -12 19 -10 4 -10 6 0 6 12 1 18 81 5 81 -3 0 -15 -8
-25 -17 -22 -20 -60 -25 -70 -9 -12 18 -9 74 4 78 7 3 33 -2 58 -10 25 -7 65
-16 88 -18 24 -2 50 -11 58 -18 16 -17 19 -56 4 -56 -5 0 -10 -8 -10 -17 1
-17 1 -17 11 0 9 15 18 17 44 13 37 -7 61 12 26 21 -33 8 -25 30 17 43 51 17
75 39 61 57 -13 15 -39 18 -39 3 0 -5 -13 -10 -30 -10 -19 0 -30 5 -30 14 0 7
-9 16 -21 19 -28 8 -19 30 17 40 16 5 41 15 56 22 18 9 29 10 37 2 7 -7 17 -7
33 1 l23 11 -22 0 c-25 1 -30 20 -11 39 9 9 8 12 -5 12 -10 0 -20 7 -24 16 -5
13 -18 15 -84 9 -60 -5 -79 -4 -79 5 0 9 -4 9 -17 -1 -14 -12 -16 -12 -11 1 2
8 17 21 31 28 30 15 34 27 12 36 -8 3 -15 0 -15 -6 0 -7 -5 -6 -15 2 -8 6 -18
9 -23 6 -5 -3 -7 5 -5 19 5 23 4 24 -46 18 -43 -4 -50 -3 -46 10 8 20 -21 29
-35 12 -7 -8 -27 -17 -46 -21 -25 -4 -39 -15 -50 -35 -17 -34 -29 -36 -44 -9
-11 20 -5 25 28 21 6 -1 12 7 12 19 0 11 -7 20 -15 20 -7 0 -19 8 -24 18 -6 9
-11 12 -11 5 0 -6 -8 -14 -17 -17 -10 -3 -30 -17 -45 -31 -16 -14 -28 -21 -28
-15 0 10 8 18 60 59 25 19 25 20 10 63 -12 34 -20 44 -41 46 -17 2 -29 -3 -33
-13z"/>
<path d="M7638 1600 c12 -5 22 -11 22 -14 0 -2 -16 -14 -36 -26 l-37 -21 -26
25 c-29 28 -51 32 -82 16 -25 -14 -24 -30 1 -30 11 0 20 -5 20 -10 0 -6 11
-15 25 -20 14 -5 25 -15 25 -21 0 -6 7 -9 15 -5 8 3 21 -3 28 -15 9 -12 20
-17 31 -13 19 7 23 -25 4 -44 -9 -9 -9 -12 0 -12 7 0 12 -9 12 -20 0 -14 7
-20 21 -20 11 0 17 -4 14 -10 -9 -15 21 -12 34 4 17 20 -5 74 -32 79 -21 3
-21 4 -2 11 38 14 48 22 57 45 7 21 6 22 -21 16 -22 -5 -32 -2 -39 11 -14 25
-3 54 22 54 21 1 21 1 2 15 -11 8 -34 15 -50 14 -29 0 -29 -1 -8 -9z"/>
<path d="M4260 1394 c0 -7 -19 -14 -42 -17 -63 -8 -102 -19 -110 -31 -6 -8
-10 -8 -15 -1 -12 16 -53 16 -53 1 0 -8 -9 -16 -20 -19 -28 -7 -43 -48 -23
-64 8 -6 12 -16 9 -21 -10 -16 5 -42 24 -42 10 0 21 7 24 16 8 21 -2 56 -14
49 -19 -12 -19 16 0 35 16 16 25 19 34 11 7 -6 15 -9 18 -6 3 3 11 -1 18 -10
7 -8 27 -15 45 -15 29 0 34 -4 40 -30 4 -16 4 -34 0 -40 -3 -5 -2 -10 3 -10 6
0 13 -7 16 -16 5 -14 4 -15 -9 -4 -8 7 -15 9 -15 5 0 -4 -7 -2 -15 5 -10 9
-15 9 -15 1 0 -6 -7 -11 -15 -11 -16 0 -21 -25 -6 -34 5 -4 21 -2 36 4 22 8
30 6 50 -14 15 -15 22 -31 19 -40 -6 -16 7 -22 20 -9 12 12 45 13 52 2 3 -6 1
-16 -5 -22 -6 -6 -11 -15 -11 -19 0 -11 38 -10 45 1 3 5 22 15 43 22 20 7 47
19 60 27 21 13 22 17 8 30 -11 11 -19 12 -28 5 -20 -15 -50 -12 -43 4 3 8 5
19 5 25 0 6 19 7 51 3 40 -6 54 -4 70 11 31 28 24 44 -20 44 -45 0 -52 7 -53
51 -1 18 -8 33 -17 37 -8 3 -25 16 -36 28 -15 16 -31 21 -60 20 -32 -1 -41 3
-52 24 -7 14 -13 20 -13 14z"/>
<path d="M7310 1325 c0 -18 -9 -29 -32 -40 -18 -8 -25 -13 -15 -10 9 2 17 0
17 -5 0 -6 9 -10 19 -10 10 0 21 -7 25 -15 3 -8 13 -15 22 -15 9 0 28 -9 43
-19 37 -27 50 -28 99 -8 44 18 49 26 32 57 -8 15 -5 22 12 34 25 18 48 21 48
6 0 -5 -11 -12 -25 -16 -14 -3 -25 -11 -25 -16 0 -6 7 -7 15 -4 9 3 18 -1 21
-9 4 -10 14 -13 28 -9 12 3 34 0 49 -5 41 -16 84 -4 90 26 4 22 2 24 -20 18
-20 -5 -24 -3 -19 12 4 13 -2 22 -21 31 -35 16 -44 15 -36 -4 4 -12 0 -14 -18
-9 -32 8 -58 8 -94 -1 -27 -7 -29 -6 -16 10 8 9 11 19 7 23 -8 8 -36 -29 -30
-39 3 -5 2 -13 -2 -20 -10 -16 -11 -58 -2 -58 4 0 8 -4 8 -10 0 -18 -40 -11
-42 8 0 9 -2 22 -2 29 -3 25 -16 25 -16 0 0 -31 0 -31 -34 -16 -25 12 -40 55
-30 86 4 13 3 14 -3 5 -8 -10 -12 -10 -23 3 -18 22 -30 18 -30 -10z"/>
<path d="M4874 961 c-2 -2 -4 -13 -4 -24 0 -13 -5 -17 -15 -13 -8 3 -15 1 -15
-4 0 -6 -9 -10 -21 -10 -11 0 -18 4 -15 8 2 4 -4 9 -15 9 -20 2 -24 -13 -10
-36 5 -7 14 -11 20 -7 7 5 9 1 5 -8 -3 -9 -1 -16 5 -16 6 0 8 -7 5 -15 -5 -13
-8 -13 -21 1 -12 11 -18 12 -29 3 -15 -12 -11 -24 9 -24 7 0 12 -10 12 -23 0
-12 7 -27 15 -32 13 -9 11 -13 -10 -29 -13 -11 -28 -19 -33 -18 -5 1 -11 -10
-12 -25 -2 -16 1 -28 6 -28 5 0 9 5 9 10 0 6 11 15 25 20 17 6 23 14 19 25 -4
9 -2 15 2 13 5 -2 23 9 39 25 16 15 33 27 38 27 4 0 3 9 -3 19 -14 26 -13 42
3 40 19 -4 97 23 97 33 0 5 -6 11 -14 14 -8 3 -12 12 -9 20 3 8 1 14 -5 14 -5
0 -12 9 -15 20 -4 14 -12 19 -32 18 -14 -1 -28 -4 -31 -7z"/>
<path d="M4476 823 c-4 -4 -15 -8 -24 -8 -12 0 -17 -9 -17 -30 0 -28 -3 -30
-40 -33 -22 -2 -45 -10 -52 -19 -6 -8 -16 -12 -22 -8 -6 3 -11 1 -11 -5 0 -7
12 -9 36 -4 27 5 35 4 30 -5 -4 -6 -14 -11 -22 -11 -8 0 -14 -9 -14 -20 0 -18
4 -20 40 -14 44 7 53 -6 21 -28 -14 -10 -17 -21 -13 -46 4 -29 6 -31 21 -19
23 20 121 29 121 11 0 -10 13 -14 41 -14 48 0 82 -24 49 -35 -11 -3 -35 -7
-52 -7 -44 -1 -68 -15 -68 -38 0 -11 -5 -20 -11 -20 -6 0 -9 -6 -6 -12 2 -7
-1 -27 -8 -44 -13 -31 -12 -32 14 -32 14 0 36 6 47 13 26 17 39 8 21 -13 -9
-12 -9 -16 0 -19 23 -8 63 -44 63 -58 0 -7 7 -18 15 -25 9 -7 13 -20 10 -27
-3 -9 0 -13 7 -11 7 3 15 15 18 28 6 27 30 40 30 16 0 -49 -49 -88 -64 -51 -4
12 -15 14 -43 9 -31 -5 -42 -2 -57 15 -10 11 -23 18 -27 15 -5 -3 -9 11 -9 30
0 29 -4 37 -24 42 -40 10 -103 -33 -92 -62 4 -10 14 -14 26 -11 27 7 25 -1 -5
-33 -38 -40 -26 -55 43 -53 l57 2 -37 -16 c-21 -9 -38 -20 -38 -25 0 -5 -21
-6 -47 -3 -35 4 -53 1 -68 -10 -19 -15 -19 -17 -2 -26 9 -6 17 -17 17 -25 0
-21 27 -28 44 -12 37 32 46 38 67 38 12 0 30 7 40 16 19 18 55 12 43 -7 -4 -7
1 -9 15 -5 66 19 61 21 55 -27 -6 -39 -4 -45 11 -44 10 1 20 -4 23 -12 3 -10
-2 -13 -21 -9 -17 3 -28 0 -32 -10 -9 -23 137 -13 164 12 22 20 27 36 12 36
-4 0 -20 -11 -35 -25 -15 -14 -31 -25 -37 -25 -16 0 -10 19 11 30 11 6 20 17
20 25 0 16 28 19 68 9 28 -8 28 -15 -3 -48 -17 -18 -20 -26 -9 -26 18 0 57 21
67 37 4 7 30 15 56 19 39 5 51 11 60 31 20 44 14 63 -19 63 -16 0 -33 -6 -37
-13 -12 -20 -73 -60 -73 -48 0 5 5 13 10 16 21 13 5 66 -32 106 -32 34 -40 39
-58 29 -16 -9 -22 -8 -27 6 -4 12 3 26 24 45 33 28 52 69 34 69 -6 0 -11 -4
-11 -10 0 -5 -4 -10 -10 -10 -19 0 -10 37 12 52 25 17 19 48 -9 48 -10 0 -31
7 -47 15 -21 11 -45 14 -92 9 -34 -4 -70 -4 -79 0 -14 5 -14 8 2 25 22 23 105
27 123 6 9 -10 18 -11 40 -3 24 8 29 15 27 39 -2 25 -5 29 -23 25 -35 -9 -34
4 2 36 19 17 34 39 34 50 0 10 -4 17 -9 13 -5 -3 -12 -1 -15 4 -4 5 -2 13 4
16 13 8 3 43 -19 68 -15 18 -14 20 7 37 22 18 30 40 14 40 -5 0 -18 -11 -30
-25 -12 -14 -36 -28 -52 -32 -17 -3 -30 -9 -30 -14 0 -5 -14 -9 -30 -9 -19 0
-41 -10 -58 -25 -15 -14 -30 -25 -34 -25 -14 0 -20 22 -8 30 9 5 9 9 1 14 -6
4 -11 14 -11 22 0 17 27 19 32 2 7 -19 38 -1 38 22 0 23 -10 26 -28 8 -9 -9
-12 -9 -12 3 0 8 5 20 12 27 9 9 7 12 -8 12 -12 0 -24 -3 -28 -7z"/>
<path d="M8135 713 c12 -32 10 -37 -10 -38 -27 0 -29 -42 -4 -69 11 -11 19
-23 19 -28 0 -4 7 -8 15 -8 7 0 18 -6 22 -14 9 -17 83 -33 83 -19 0 8 -22 20
-86 47 -1 1 -5 12 -8 26 -4 14 -4 21 1 15 4 -5 17 -15 28 -21 17 -10 24 -7 49
20 17 19 26 24 22 13 -4 -13 -2 -17 6 -14 7 2 13 14 12 26 0 11 4 21 10 21 6
0 17 9 24 21 8 12 9 18 3 14 -6 -3 -11 -1 -11 4 0 6 -7 11 -15 11 -9 0 -12 -6
-9 -15 8 -20 -19 -20 -36 0 -6 8 -24 14 -38 13 -15 0 -40 3 -56 6 -25 6 -28 4
-21 -11z"/>
<path d="M3973 673 c-7 -2 -13 -11 -13 -18 0 -8 -7 -21 -17 -30 -12 -13 -14
-23 -7 -43 12 -33 34 -38 76 -18 44 23 51 20 45 -14 -7 -33 6 -40 23 -12 8 13
10 13 9 2 -3 -34 2 -50 16 -50 9 0 18 6 21 14 3 8 13 16 22 18 9 3 24 17 32
32 17 33 7 42 -52 52 -39 7 -43 28 -7 39 10 4 19 10 19 15 0 15 -40 22 -56 9
-11 -9 -18 -9 -26 -1 -8 8 -16 7 -31 -1 -15 -9 -21 -9 -24 1 -5 13 -10 14 -30
5z"/>
<path d="M8305 620 c-10 -11 -26 -22 -36 -25 -11 -4 -17 -10 -14 -15 3 -5 12
-7 20 -3 9 3 15 -1 15 -10 0 -24 14 -27 43 -12 19 10 29 11 34 2 3 -6 1 -13
-5 -15 -7 -2 -12 -8 -12 -13 0 -4 7 -6 15 -3 14 6 18 0 30 -43 2 -6 13 -9 25
-6 14 4 24 19 31 49 9 36 16 44 34 44 13 0 25 8 29 18 3 9 9 24 12 32 3 8 -2
6 -11 -5 -11 -13 -18 -16 -23 -9 -4 6 -26 11 -50 11 -38 0 -43 -2 -40 -21 2
-16 9 -20 27 -18 26 4 25 -15 -2 -32 -22 -14 -60 20 -51 47 5 16 2 18 -15 12
-17 -5 -21 -2 -21 14 0 26 -12 27 -35 1z"/>
<path d="M2510 520 c0 -29 -4 -40 -15 -40 -8 0 -15 -7 -15 -15 0 -13 18 -15
122 -13 l123 3 2 38 3 37 -45 0 c-33 0 -45 4 -45 15 0 12 -14 15 -65 15 l-65
0 0 -40z"/>
<path d="M7030 482 c-17 -6 -11 -20 10 -27 11 -3 20 -11 20 -17 0 -5 -9 -12
-20 -15 -11 -3 -20 -9 -20 -14 0 -5 4 -8 8 -6 15 4 81 -26 86 -40 10 -25 -5
-41 -39 -41 -49 0 -58 -9 -39 -38 9 -13 22 -24 30 -24 7 0 20 -10 28 -22 l15
-21 11 27 c14 39 13 56 -5 50 -8 -4 -15 -1 -15 4 0 16 35 24 73 17 29 -6 35
-3 39 13 4 16 -1 21 -23 26 -16 3 -36 3 -44 0 -10 -4 -15 0 -15 15 0 12 -10
35 -22 51 -17 24 -19 32 -8 45 7 8 11 15 9 16 -15 3 -71 3 -79 1z"/>
<path d="M3796 443 c-3 -10 -18 -31 -32 -47 -22 -23 -24 -30 -13 -38 10 -7 8
-8 -8 -3 -16 4 -23 2 -23 -7 0 -27 20 -36 49 -22 14 7 36 11 48 8 18 -5 20
-10 13 -35 -5 -16 -19 -39 -33 -51 -13 -13 -27 -34 -31 -48 -3 -14 -3 -19 0
-12 7 15 54 16 54 1 0 -7 -11 -22 -25 -35 -23 -22 -33 -44 -19 -44 4 0 16 10
28 23 27 27 57 38 36 12 -21 -25 -4 -29 28 -6 17 12 35 21 41 21 6 0 11 5 11
10 0 13 -23 13 -36 0 -12 -12 -44 -3 -44 12 0 15 43 47 63 48 10 0 20 -7 23
-15 4 -9 13 -13 24 -10 9 3 23 -1 30 -10 10 -12 10 -15 -4 -15 -18 0 -66 -46
-66 -63 0 -5 15 -7 35 -4 19 3 37 1 41 -4 3 -5 9 -7 14 -4 4 3 6 -4 3 -15 -5
-17 0 -20 31 -20 21 0 35 4 32 9 -3 4 5 18 19 31 l24 22 26 -28 27 -29 -7 26
c-4 16 -1 29 7 36 12 10 60 25 83 27 6 1 10 7 9 14 -1 6 -2 19 -2 28 -1 10 -8
14 -17 10 -8 -3 -19 3 -25 12 -9 14 -10 11 -6 -13 5 -32 -7 -65 -17 -48 -9 14
-100 -2 -131 -22 -14 -10 -33 -14 -42 -11 -13 5 -12 10 8 35 17 22 32 30 55
30 17 1 35 6 38 11 4 6 -10 10 -34 10 -45 0 -58 12 -36 30 8 7 15 25 15 41 0
30 -14 39 -24 17 -3 -10 -8 -8 -15 4 -7 10 -19 14 -32 11 -16 -5 -20 -2 -17
13 2 13 -3 19 -16 19 -13 0 -22 10 -27 28 -4 16 -3 25 2 21 5 -3 9 4 9 15 0
27 -36 47 -56 31 -13 -12 -29 -11 -66 5 -11 4 -18 1 -22 -12z"/>
</g>
</svg>
